<svg width="10719" height="2683" viewBox="0 0 10719 2683" fill="none" xmlns="http://www.w3.org/2000/svg">
<path d="M2063.37 1799.7C2048.6 1769.51 2036.54 1743.06 2036.57 1740.92C2036.6 1738.79 2034.09 1734.22 2030.98 1730.77C2027.88 1727.32 2025.34 1723.65 2025.34 1722.62C2025.34 1721.59 2023.86 1719.12 2022.05 1717.14C2020.24 1715.16 2006.49 1689.64 1991.49 1660.41C1962.79 1604.48 1940.55 1562.68 1914.52 1515.74C1905.47 1499.41 1899.53 1486.73 1900.49 1485.78C1901.41 1484.87 1912.74 1479.43 1925.67 1473.69C1938.6 1467.95 1963.03 1456.64 1979.96 1448.57C2011.75 1433.41 2154.25 1372.22 2162.67 1370.11C2166.9 1369.05 2167.9 1369.93 2171.79 1378.1C2179.79 1394.89 2269.9 1568.03 2301.45 1627.22C2347.58 1713.76 2363.49 1748.79 2358.82 1753.53C2357.79 1754.59 2315.12 1770.81 2264.01 1789.59C2212.9 1808.37 2155 1830.23 2135.35 1838.16C2115.7 1846.09 2097.51 1853.03 2094.92 1853.59C2090.43 1854.56 2089.03 1852.16 2063.37 1799.7Z" fill="url(#paint0_linear_149_2)"/>
<path d="M1302.29 0.931747C1288.29 1.29311 1274.64 2.72103 1261.93 5.29191C1203.85 17.045 1153.87 42.3745 1124.87 74.7448C1100.63 101.806 1075.01 136.122 1065.61 154.13C1049.74 184.528 1006.5 275.765 993.335 306.626C986.446 322.769 973.269 351.298 964.05 370.021C954.832 388.742 942.199 416.569 935.977 431.855C929.756 447.141 916.761 476.569 907.105 497.25C897.449 517.93 882.072 551.773 872.935 572.455C863.797 593.136 848.578 626.554 839.115 646.719C829.651 666.883 816.324 696.069 809.499 711.58C802.673 727.091 786.387 762.751 773.307 790.828C760.228 818.903 745.657 850.634 740.93 861.335C736.202 872.036 723.686 899.532 713.115 922.436C702.543 945.341 693.893 965.434 693.893 967.089C693.893 968.743 692.164 971.853 690.051 974.002C687.831 976.259 686.683 979.153 687.328 980.863C687.976 982.58 686.879 985.305 684.717 987.353C682.668 989.293 680.439 993.183 679.761 995.998C679.084 998.813 677.971 1001.54 677.285 1002.06C676.6 1002.57 670.984 1013.99 664.809 1027.44C658.634 1040.88 640.183 1080.97 623.808 1116.52C607.432 1152.07 593.072 1184.43 591.893 1188.43C590.715 1192.43 589.18 1195.71 588.488 1195.71C586.481 1195.71 582.938 1204.84 582.938 1210.01C582.938 1212.6 582.19 1214.26 581.279 1213.69C579.274 1212.43 577.388 1216.96 577.388 1223.03C577.388 1225.48 576.026 1228.26 574.36 1229.2C572.695 1230.15 571.126 1233.6 570.874 1236.86C570.614 1240.22 568.387 1244.86 565.74 1247.55C563.169 1250.16 558.838 1257.97 556.114 1264.9C553.391 1271.83 550.487 1278.34 549.665 1279.37C547.7 1281.85 517.667 1346.57 505.174 1375.26C499.77 1387.67 494.251 1398.94 492.91 1400.3C491.568 1401.67 490.472 1404.78 490.472 1407.22C490.472 1409.66 489.225 1412.92 487.699 1414.47C486.173 1416.02 484.922 1419.47 484.922 1422.13C484.922 1424.79 484.044 1426.96 482.967 1426.96C481.889 1426.96 481.479 1427.74 482.057 1428.69C482.634 1429.64 481.852 1431.69 480.317 1433.25C478.782 1434.81 477.529 1437.03 477.529 1438.18C477.529 1441.48 470.225 1455.16 468.465 1455.16C467.592 1455.16 465.863 1457.91 464.62 1461.27C463.377 1464.63 461.612 1469.29 460.698 1471.61C459.783 1473.94 458.299 1477.75 457.4 1480.07C449 1501.83 444.921 1510.76 440.635 1516.78C437.876 1520.65 435.053 1526.11 434.36 1528.92C433.667 1531.73 431.357 1535.67 429.227 1537.69C427.063 1539.74 425.945 1542.33 426.693 1543.56C427.43 1544.77 426.271 1548.19 424.117 1551.15C421.963 1554.11 420.198 1557.72 420.198 1559.18C420.198 1560.63 418.534 1563.97 416.5 1566.6C414.465 1569.23 412.793 1572.94 412.793 1574.85C412.793 1576.75 411.289 1580.85 409.457 1583.95C407.625 1587.05 403.758 1595.3 400.864 1602.28C397.971 1609.26 394.895 1614.97 394.03 1614.97C393.165 1614.97 392.46 1616.27 392.46 1617.85C392.46 1619.43 391.213 1621.22 389.687 1621.81C388.162 1622.41 386.911 1624.43 386.911 1626.32C386.911 1628.2 385.81 1630.87 384.462 1632.24C383.113 1633.61 381.471 1637.45 380.817 1640.78C380.163 1644.1 377.369 1650.44 374.608 1654.87C371.845 1659.29 342.443 1718.75 309.27 1787C276.098 1855.25 242.433 1923.78 234.461 1939.29C226.489 1954.8 210.179 1986.53 198.211 2009.79C148.22 2106.98 126.159 2151.31 126.159 2154.58C126.159 2156.49 124.954 2159.28 123.479 2160.78C122.004 2162.28 120.225 2165.94 119.526 2168.91C118.827 2171.87 117.44 2175.35 116.444 2176.64C113.582 2180.33 103.972 2201.65 103.972 2204.3C103.972 2205.62 102.469 2208.71 100.635 2211.18C98.802 2213.65 95.2647 2221.06 92.7754 2227.65C90.2862 2234.24 86.4289 2240.86 84.2019 2242.36C81.9747 2243.86 80.5493 2246.14 81.0355 2247.43C82.1612 2250.42 71.2283 2275.37 67.9881 2277.21C66.6489 2277.97 61.815 2287.28 57.247 2297.89C30.7381 2359.48 9.82314 2432.21 2.05307 2489.81C-0.0386878 2505.31 0.0427666 2506.6 3.34893 2509.88C9.53237 2516.01 57.7745 2544.6 133.78 2587.18C174.358 2609.91 228.565 2640.72 254.238 2655.65C279.912 2670.57 301.542 2682.8 302.305 2682.83C303.068 2682.85 303.693 2680.71 303.693 2678.06C303.693 2671.14 313.814 2631.32 322.538 2603.91C347.31 2526.08 392.183 2430.33 441.919 2349.15C469.799 2303.65 535.385 2213.39 574.441 2166.78C626.156 2105.06 729.111 2003.53 808.415 1936.03C859.28 1892.74 970.417 1809.95 1049.88 1756.16C1135.8 1698 1233.81 1638.71 1356.83 1570.45C1424.14 1533.11 1606.38 1439.82 1674.94 1407.61C1702.4 1394.71 1742.35 1375.91 1763.71 1365.84C1990.9 1258.72 2291.87 1133.55 2557.98 1035.49C2589.09 1024.03 2935.88 910.04 2935.88 910.04C2935.88 823.696 2936.27 584.347 2935.88 584.347C2932.77 584.347 2462.28 757.541 2390.62 784.981C2267.34 832.185 2088.5 902.404 2011.63 933.78C1983.96 945.075 1961.69 953.12 1959 952.797C1955.24 952.344 1952.86 949.325 1946.68 937.191C1942.48 928.919 1924.68 894.311 1907.14 860.284C1889.6 826.259 1822.37 691.739 1757.74 561.35C1571.23 185.08 1558.03 159.136 1536.05 125.518C1510.1 85.8292 1465.57 46.4584 1421.94 24.6264C1389.48 8.38749 1344.29 -0.152134 1302.29 0.931747ZM1311.56 371.416C1332.99 371.416 1351.92 383.561 1366.76 406.866C1371.41 414.18 1385.48 442.16 1398.02 469.046C1410.56 495.931 1481.55 641.452 1555.78 792.423C1630.01 943.395 1691.23 1069.96 1691.82 1073.67L1692.9 1080.41L1667.28 1091.36C1623 1110.28 1533.83 1149.63 1501.6 1164.48C1372.07 1224.16 1091.75 1370.86 981.46 1436.7C970.271 1443.38 930.743 1467.05 893.618 1489.31C856.494 1511.56 814.053 1536.81 799.305 1545.41C784.557 1554.01 765.838 1565.56 757.71 1571.09C747.397 1578.09 741.112 1581.13 736.907 1581.13C729.491 1581.13 729.322 1579.14 735.48 1564.26C742.57 1547.14 792.078 1440.06 822.43 1376.2C855.211 1307.23 879.881 1253.52 913.974 1176.91C928.009 1145.37 952.135 1091.64 967.587 1057.52C983.039 1023.4 1013.01 956.134 1034.19 908.05C1055.36 859.966 1080.57 803.282 1090.21 782.084C1099.84 760.885 1121.65 712.237 1138.67 673.977C1155.69 635.717 1176.68 588.761 1185.31 569.631C1193.94 550.501 1209.31 515.814 1219.46 492.548C1247.36 428.573 1260.3 404.003 1272.97 390.923C1287.5 375.916 1296.39 371.416 1311.56 371.416Z" fill="url(#paint1_linear_149_2)"/>
<path d="M3008.69 584.105H3252.58V1194.43C3252.58 1296.09 3334.99 1378.51 3436.65 1378.51H4202.42C4227.84 1378.51 4248.44 1357.9 4248.44 1332.49V584.105H4506.16V1544.07C4506.16 1594.9 4464.96 1636.1 4414.13 1636.1H3376.85C3173.52 1636.1 3008.69 1471.28 3008.69 1267.95V584.105Z" fill="url(#paint2_linear_149_2)"/>
<path d="M4671.83 584.105C4621 584.105 4579.8 625.312 4579.8 676.143V1590.09C4579.8 1615.5 4600.4 1636.1 4625.82 1636.1H4791.42C4816.84 1636.1 4837.44 1615.5 4837.44 1590.09V887.722C4837.44 862.306 4858.05 841.702 4883.46 841.702H5948.47C6019.6 841.702 6077.27 784.037 6077.27 712.904C6077.27 641.77 6019.6 584.105 5948.47 584.105H4671.83Z" fill="url(#paint3_linear_149_2)"/>
<path fill-rule="evenodd" clip-rule="evenodd" d="M6077.27 1110.1C6077.27 1400.61 6312.77 1636.1 6603.27 1636.1H7049.66C7340.16 1636.1 7575.66 1400.61 7575.66 1110.1C7575.66 819.603 7340.16 584.105 7049.66 584.105H6603.27C6312.77 584.105 6077.27 819.603 6077.27 1110.1ZM7049.45 1378.51C7197.69 1378.51 7317.86 1258.34 7317.86 1110.11C7317.86 961.87 7197.69 841.702 7049.45 841.702H6603.48C6455.24 841.702 6335.08 961.87 6335.08 1110.11C6335.08 1258.34 6455.24 1378.51 6603.48 1378.51H7049.45Z" fill="url(#paint4_linear_149_2)"/>
<path d="M7741.33 584.105C7690.5 584.105 7649.29 625.312 7649.29 676.143V1590.09C7649.29 1615.5 7669.9 1636.1 7695.31 1636.1H7860.92C7886.34 1636.1 7906.94 1615.5 7906.94 1590.09V887.722C7906.94 862.306 7927.55 841.702 7952.96 841.702H9017.97C9089.1 841.702 9146.77 784.037 9146.77 712.904C9146.77 641.77 9089.1 584.105 9017.97 584.105H7741.33Z" fill="url(#paint5_linear_149_2)"/>
<path fill-rule="evenodd" clip-rule="evenodd" d="M10626.8 584.105C10677.6 584.105 10718.8 625.312 10718.8 676.144V1544.07C10718.8 1594.9 10677.6 1636.1 10626.8 1636.1H9588.55C9385.23 1636.1 9220.4 1471.28 9220.4 1267.95V981.738L10461 981.739V887.722C10461 862.306 10440.4 841.702 10415 841.702H9349.2C9278.06 841.702 9220.4 784.037 9220.4 712.904C9220.4 641.77 9278.06 584.105 9349.2 584.105H10626.8ZM9478.21 1239.34C9478.21 1316.2 9540.51 1378.51 9617.38 1378.51H10415C10440.4 1378.51 10461 1357.9 10461 1332.49V1239.34H9478.21Z" fill="url(#paint6_linear_149_2)"/>
<defs>
<linearGradient id="paint0_linear_149_2" x1="0.643555" y1="1341.84" x2="10718.8" y2="1341.84" gradientUnits="userSpaceOnUse">
<stop stop-color="#FFC18F"/>
<stop offset="0.125" stop-color="#DE8673"/>
<stop offset="0.255" stop-color="#B64D66"/>
<stop offset="0.425" stop-color="#82578B"/>
<stop offset="0.56" stop-color="#6B4793"/>
<stop offset="0.775" stop-color="#4F62B0"/>
<stop offset="1" stop-color="#5180C4"/>
</linearGradient>
<linearGradient id="paint1_linear_149_2" x1="0.643555" y1="1341.84" x2="10718.8" y2="1341.84" gradientUnits="userSpaceOnUse">
<stop stop-color="#FFC18F"/>
<stop offset="0.125" stop-color="#DE8673"/>
<stop offset="0.255" stop-color="#B64D66"/>
<stop offset="0.425" stop-color="#82578B"/>
<stop offset="0.56" stop-color="#6B4793"/>
<stop offset="0.775" stop-color="#4F62B0"/>
<stop offset="1" stop-color="#5180C4"/>
</linearGradient>
<linearGradient id="paint2_linear_149_2" x1="0.643555" y1="1341.84" x2="10718.8" y2="1341.84" gradientUnits="userSpaceOnUse">
<stop stop-color="#FFC18F"/>
<stop offset="0.125" stop-color="#DE8673"/>
<stop offset="0.255" stop-color="#B64D66"/>
<stop offset="0.425" stop-color="#82578B"/>
<stop offset="0.56" stop-color="#6B4793"/>
<stop offset="0.775" stop-color="#4F62B0"/>
<stop offset="1" stop-color="#5180C4"/>
</linearGradient>
<linearGradient id="paint3_linear_149_2" x1="0.643555" y1="1341.84" x2="10718.8" y2="1341.84" gradientUnits="userSpaceOnUse">
<stop stop-color="#FFC18F"/>
<stop offset="0.125" stop-color="#DE8673"/>
<stop offset="0.255" stop-color="#B64D66"/>
<stop offset="0.425" stop-color="#82578B"/>
<stop offset="0.56" stop-color="#6B4793"/>
<stop offset="0.775" stop-color="#4F62B0"/>
<stop offset="1" stop-color="#5180C4"/>
</linearGradient>
<linearGradient id="paint4_linear_149_2" x1="0.643555" y1="1341.84" x2="10718.8" y2="1341.84" gradientUnits="userSpaceOnUse">
<stop stop-color="#FFC18F"/>
<stop offset="0.125" stop-color="#DE8673"/>
<stop offset="0.255" stop-color="#B64D66"/>
<stop offset="0.425" stop-color="#82578B"/>
<stop offset="0.56" stop-color="#6B4793"/>
<stop offset="0.775" stop-color="#4F62B0"/>
<stop offset="1" stop-color="#5180C4"/>
</linearGradient>
<linearGradient id="paint5_linear_149_2" x1="0.643555" y1="1341.84" x2="10718.8" y2="1341.84" gradientUnits="userSpaceOnUse">
<stop stop-color="#FFC18F"/>
<stop offset="0.125" stop-color="#DE8673"/>
<stop offset="0.255" stop-color="#B64D66"/>
<stop offset="0.425" stop-color="#82578B"/>
<stop offset="0.56" stop-color="#6B4793"/>
<stop offset="0.775" stop-color="#4F62B0"/>
<stop offset="1" stop-color="#5180C4"/>
</linearGradient>
<linearGradient id="paint6_linear_149_2" x1="0.643555" y1="1341.84" x2="10718.8" y2="1341.84" gradientUnits="userSpaceOnUse">
<stop stop-color="#FFC18F"/>
<stop offset="0.125" stop-color="#DE8673"/>
<stop offset="0.255" stop-color="#B64D66"/>
<stop offset="0.425" stop-color="#82578B"/>
<stop offset="0.56" stop-color="#6B4793"/>
<stop offset="0.775" stop-color="#4F62B0"/>
<stop offset="1" stop-color="#5180C4"/>
</linearGradient>
</defs>
</svg>
