<?xml version="1.0" encoding="UTF-8" standalone="no"?>
<!-- Created with Inkscape (http://www.inkscape.org/) -->

<svg
   width="496"
   height="496"
   viewBox="0 0 131.23333 131.23334"
   version="1.1"
   id="svg4110"
   sodipodi:docname="ampere-logo-symbolic.svg"
   inkscape:version="1.4 (e7c3feb100, 2024-10-09)"
   xmlns:inkscape="http://www.inkscape.org/namespaces/inkscape"
   xmlns:sodipodi="http://sodipodi.sourceforge.net/DTD/sodipodi-0.dtd"
   xmlns="http://www.w3.org/2000/svg"
   xmlns:svg="http://www.w3.org/2000/svg">
  <sodipodi:namedview
     id="namedview1"
     pagecolor="#ffffff"
     bordercolor="#000000"
     borderopacity="0.25"
     inkscape:showpageshadow="2"
     inkscape:pageopacity="0.0"
     inkscape:pagecheckerboard="0"
     inkscape:deskcolor="#d1d1d1"
     inkscape:zoom="0.58215926"
     inkscape:cx="210.42352"
     inkscape:cy="380.48008"
     inkscape:window-width="1704"
     inkscape:window-height="999"
     inkscape:window-x="0"
     inkscape:window-y="0"
     inkscape:window-maximized="1"
     inkscape:current-layer="layer1" />
  <defs
     id="defs4107" />
  <g
     id="layer1" />
  <g
     id="g912"
     transform="matrix(0.10319198,0,0,0.10319198,-105.23108,28.592285)">
    <path
       style="fill:#cccccc"
       d="m 1079.2798,741.67538 c 36.6285,-65.82367 91.2425,-131.32952 151.6117,-181.84813 97.0787,-81.23819 214.4028,-132.95242 337.8043,-148.89778 6.875,-0.88835 13.0169,-2.15269 13.6487,-2.80964 0.6317,-0.65695 53.9266,-99.86456 118.4331,-220.46135 64.5064,-120.596803 117.6024,-218.921799 117.9911,-218.500004 0.64,0.694577 409.719,765.009454 414.807,775.016904 l 2.1607,4.25 h -33.4774 -33.4775 l -8.1925,-12.25 c -38.1355,-57.02333 -88.4845,-110.07148 -143.3932,-151.08049 -82.1821,-61.37836 -175.4389,-99.92465 -277.2663,-114.60376 -7.8464,-1.13112 -18.0839,-2.35003 -22.75,-2.70869 -4.666,-0.35867 -8.4837,-0.95377 -8.4837,-1.32246 0,-0.59124 28.7751,-55.00849 29.5469,-55.87677 0.5356,-0.60256 29.4462,3.90207 44.9531,7.00426 92.0861,18.42197 175.7076,54.00838 251.1877,106.89668 13.5943,9.52539 18.3123,11.70154 18.3123,8.4464 0,-1.60598 -230.4392,-433.143033 -232.4443,-435.291913 -0.6603,-0.70771 -1.8744,-1.0282 -2.6979,-0.71219 -0.8235,0.31601 -79.4508,146.302263 -174.7274,324.413893 -95.2766,178.11163 -173.7703,324.57635 -174.4303,325.47716 -1.0767,1.46951 -4.6049,1.61059 -34.332,1.37285 l -33.1319,-0.26497 67.9494,-127 c 81.8984,-153.07099 76.367,-142.37596 74.5667,-144.17628 -1.2079,-1.20793 -3.0402,-1.05261 -13.0093,1.10278 -50.6999,10.96166 -93.8154,25.90734 -140.243,48.61423 -26.0075,12.71983 -42.4588,22.15294 -67,38.4176 -67.6158,44.81233 -124.1764,101.18002 -168.8545,168.2784 l -10.1455,15.23673 -34.336,0.0133 -34.3361,0.0133 z"
       id="path914" />
  </g>
  <style
     id="style2"
     type="text/css">
    .st1{fill:#86da2f}.st2{fill:#24c2ff}.st3{fill:#ffcb12}.st4{fill:#0069da}.st5{fill:#ff4649}
  </style>
  <style
     id="style2-3"
     type="text/css">
    .st1{fill:#86da2f}.st2{fill:#24c2ff}.st3{fill:#ffcb12}.st4{fill:#0069da}.st5{fill:#ff4649}
  </style>
</svg>
