<?xml version="1.0" encoding="UTF-8" standalone="no"?>
<svg
   width="496"
   height="496"
   version="1.1"
   viewBox="0 0 33.925876 32.80912"
   id="svg3"
   xmlns="http://www.w3.org/2000/svg"
   xmlns:svg="http://www.w3.org/2000/svg">
  <defs
     id="defs3" />
  <g
     transform="translate(-40.733242,-130.09004)"
     id="g3">
    <g
       transform="matrix(1.0985,0,0,1.0985,40.733,130.09)"
       style="fill:#cccccc;fill-rule:evenodd"
       id="g2">
      <path
         d="M 29.836,11.164 27.5529,9.81 C 26.484,9.1739 25.8233,8.0012 25.8233,6.7325 V 4.0246 c 0,-0.55437 -0.2456,-1.0768 -0.6642,-1.425 -1.2453,-1.0341 -2.6463,-1.8728 -4.1614,-2.4733 -0.5051,-0.199 -1.0689,-0.15991 -1.5359,0.11727 l -2.2865,1.3575 c -1.0689,0.63611 -2.3869,0.63611 -3.4592,0 L 11.4295,0.24357 C 10.9625,-0.03361 10.3952,-0.07626 9.8936,0.1263 8.375,0.72687 6.9775,1.5655 5.7356,2.5961 5.31704,2.94435 5.07144,3.46674 5.07144,4.0211 V 6.729 c 0,1.2686 -0.65725,2.4414 -1.7296,3.0775 l -2.2831,1.3539 c -0.467,0.2772 -0.78524,0.757 -0.86826,1.3042 -0.12799,0.8067 -0.19026,1.6312 -0.19026,2.4698 0,0.8387 0.062266,1.6631 0.1868,2.4662 0.083021,0.5473 0.40127,1.0306 0.86826,1.3078 l 2.2831,1.3539 c 1.0689,0.6361 1.7296,1.8088 1.7296,3.0775 v 2.7079 c 0,0.5543 0.2456,1.0767 0.66416,1.425 1.2419,1.0305 2.6428,1.8692 4.158,2.4698 0.50503,0.199 1.0689,0.1599 1.5359,-0.1173 l 2.2865,-1.3575 c 1.0689,-0.6361 2.3868,-0.6361 3.4592,0 l 2.2865,1.3575 c 0.467,0.2772 1.0343,0.3163 1.5359,0.1173 1.5152,-0.6006 2.9161,-1.4393 4.158,-2.4698 0.4186,-0.3483 0.6642,-0.8707 0.6642,-1.425 v -2.7079 c 0,-1.2687 0.6607,-2.4414 1.7296,-3.0775 l 2.283,-1.3539 c 0.467,-0.2772 0.7853,-0.7569 0.8683,-1.3078 0.1211,-0.8031 0.1868,-1.6275 0.1868,-2.4662 0,-0.8386 -0.0623,-1.6631 -0.1868,-2.4662 -0.0796,-0.5473 -0.3944,-1.027 -0.8613,-1.3042 z m -14.39,13.305 c -5.1231,0 -9.2776,-4.268 -9.2776,-9.5309 0,-5.263 4.1545,-9.5309 9.2776,-9.5309 5.123,0 9.2775,4.2679 9.2775,9.5309 0,5.2629 -4.1545,9.5309 -9.2775,9.5309 z"
         id="path2" />
    </g>
  </g>
</svg>
