<?xml version="1.0" encoding="UTF-8" standalone="no"?>
<svg
   width="2935.2649"
   height="2681.9836"
   viewBox="0 0 2935.2649 2681.9836"
   fill="none"
   version="1.1"
   id="svg17"
   sodipodi:docname="aurora-v3-white.svg"
   inkscape:version="1.3.2 (091e20e, 2023-11-25)"
   xmlns:inkscape="http://www.inkscape.org/namespaces/inkscape"
   xmlns:sodipodi="http://sodipodi.sourceforge.net/DTD/sodipodi-0.dtd"
   xmlns="http://www.w3.org/2000/svg"
   xmlns:svg="http://www.w3.org/2000/svg">
  <sodipodi:namedview
     id="namedview17"
     pagecolor="#ffffff"
     bordercolor="#000000"
     borderopacity="0.25"
     inkscape:showpageshadow="2"
     inkscape:pageopacity="0.0"
     inkscape:pagecheckerboard="0"
     inkscape:deskcolor="#d1d1d1"
     inkscape:zoom="0.19539026"
     inkscape:cx="1235.9879"
     inkscape:cy="916.11527"
     inkscape:window-width="1712"
     inkscape:window-height="1387"
     inkscape:window-x="0"
     inkscape:window-y="25"
     inkscape:window-maximized="0"
     inkscape:current-layer="svg17" />
  <path
     fill-rule="evenodd"
     clip-rule="evenodd"
     d="m 1261.2864,4.4520724 c 12.71,-2.57088 26.36,-3.99880801 40.36,-4.36016901 42,-1.08388 87.19,7.45573901 119.65,23.69463861 43.63,21.832 88.16,61.2028 114.11,100.891698 21.98,33.617 35.18,59.562 221.69,435.832 64.63,130.389 131.86,264.909 149.4,298.934 17.54,34.027 35.34,68.635 39.54,76.907 6.18,12.134 8.56,15.153 12.32,15.606 2.69,0.323 24.96,-7.722 52.63,-19.017 76.87,-31.376 255.71,-101.595 378.99,-148.799 71.66,-27.44 542.15,-200.634 545.26,-200.634 0.11,0 -0.11,7.229 -0.47,19.526 -0.96,31.865 -2.94,97.758 -2.94,160.06 0,86.344 -2.76,146.107 -3.1,146.107 -1.15,0 -340.28,113.99296 -371.39,125.45296 -266.11,98.06 -567.08,223.23 -794.27,330.35 -21.36,10.07 -61.31,28.87 -88.77,41.77 -68.56,32.2 -250.8,125.49 -318.11,162.84 -123.02,68.25 -221.03,127.55 -306.95,185.71 -79.46296,53.79 -190.59996,136.58 -241.46496,179.87 -79.304,67.49 -182.259,169.03 -233.974,230.75 -39.056,46.61 -104.642,136.87 -132.522,182.37 -49.736,81.17 -94.609,176.93 -119.381,254.75 -8.724,27.41 -18.845,67.24 -18.845,74.16 0,2.64 -0.625,4.79 -1.388,4.76 -0.763,-0.02 -22.393,-12.25 -48.067,-27.17 -25.673,-14.93 -79.88,-45.74 -120.458,-68.47 -76.005495,-42.58 -124.247615,-71.18 -130.431065,-77.31 -3.30616303,-3.27 -3.38761753,-4.56 -1.29586,-20.07 7.77007,-57.6 28.68503,-130.32 55.19393,-191.91 4.568,-10.61 9.4019,-19.92 10.7411,-20.68 3.2402,-1.84 14.1731,-26.8 13.0474,-29.78 -0.4862,-1.29 0.9392,-3.57 3.1664,-5.07 2.227,-1.5 6.0843,-8.12 8.5735,-14.71 2.4893,-6.59 6.0266,-14.01 7.8596,-16.47 1.833995,-2.47 3.336995,-5.57 3.336995,-6.89 0,-2.65 9.61,-23.96 12.472,-27.65 0.996,-1.29 2.383,-4.77 3.082,-7.74 0.699,-2.97 2.478,-6.62 3.953,-8.12 1.475,-1.5 2.68,-4.29 2.68,-6.2 0,-3.28 22.061,-47.6 72.052,-144.79 11.968,-23.27 28.278,-54.99 36.25,-70.5 7.972,-15.52 41.637,-84.05 74.809,-152.29 33.173,-68.25 62.575,-127.71 65.338,-132.13 2.762,-4.43 5.555,-10.77 6.209,-14.1 0.654,-3.32 2.296,-7.16 3.645,-8.54 1.348,-1.37 2.449,-4.03 2.449,-5.92 0,-1.88 1.251,-3.91 2.776,-4.5 1.526,-0.6 2.773,-2.38 2.773,-3.96 0,-1.59 0.705,-2.88 1.57,-2.88 0.865,0 3.941,-5.71 6.834,-12.69 2.894,-6.98 6.761,-15.23 8.593,-18.33 1.832,-3.1 3.336,-7.2 3.336,-9.11 0,-1.9 1.672,-5.61 3.707,-8.24 2.034,-2.63 3.698,-5.97 3.698,-7.43 0,-1.45 1.765,-5.06 3.919,-8.02 2.154,-2.96 3.313,-6.38 2.576,-7.59 -0.748,-1.23 0.37,-3.82 2.534,-5.87 2.13,-2.02 4.44,-5.97 5.133,-8.77 0.693,-2.81 3.516,-8.28 6.275,-12.15 4.286,-6.01 8.365,-14.94 16.765,-36.7 0.899,-2.32 2.383,-6.13 3.298,-8.46 0.914,-2.33 2.679,-6.98 3.922,-10.34 1.243,-3.36 2.972,-6.11 3.845,-6.11 1.76,0 9.064,-13.68 9.064,-16.98 0,-1.15 1.253,-3.37 2.788,-4.93 1.535,-1.56 2.317,-3.61 1.74,-4.56 -0.578,-0.95 -0.168,-1.73 0.91,-1.73 1.077,0 1.955,-2.18 1.955,-4.84 0,-2.66 1.251,-6.1 2.777,-7.65 1.526,-1.55 2.773,-4.82 2.773,-7.25 0,-2.44 1.096,-5.55 2.438,-6.92 1.341,-1.37 6.86,-12.64 12.264,-25.04 12.493,-28.69 42.526,-93.41 44.491,-95.89 0.822,-1.03 3.726,-7.55 6.449,-14.48 2.724,-6.92 7.055,-14.73 9.626,-17.35 2.647,-2.69 4.874,-7.33 5.134,-10.68 0.252,-3.27 1.821,-6.71 3.486,-7.66 1.666,-0.95 3.028,-3.72 3.028,-6.17 0,-6.08 1.886,-10.6 3.891,-9.34 0.911,0.57 1.659,-1.09 1.659,-3.69 0,-5.16 3.543,-14.3 5.55,-14.3 0.692,0 2.227,-3.27 3.405,-7.27 1.179,-4 15.539,-36.36 31.915,-71.91 16.375,-35.56 34.826,-75.64 41.001,-89.09 6.175,-13.44 11.791,-24.86 12.476,-25.38 0.686,-0.51 1.799,-3.23996 2.476,-6.05496 0.678,-2.815 2.907,-6.705 4.956,-8.645 2.162,-2.048 3.259,-4.773 2.611,-6.49 -0.645,-1.71 0.503,-4.604 2.723,-6.862 2.113,-2.148 3.842,-5.258 3.842,-6.912 0,-1.655 8.65,-21.748 19.222,-44.653 10.571,-22.904 23.087,-50.4 27.815,-61.101 4.727,-10.701 19.298,-42.432 32.377,-70.508 13.08,-28.076 29.366,-63.736 36.192,-79.247 6.825,-15.511 20.152,-44.697 29.616,-64.862 9.463,-20.164 24.682,-53.582 33.82,-74.263 9.137,-20.682 24.514,-54.525 34.17,-75.206 9.656,-20.681 22.651,-50.108 28.872,-65.394 6.222,-15.286 18.855,-43.113 28.073,-61.835 9.219,-18.722 22.396,-47.251 29.285,-63.394 13.16496,-30.861 56.40496,-122.098 72.27496,-152.496 9.4,-18.008 35.02,-52.324 59.26,-79.385298 29,-32.3703 78.98,-57.6998 137.06,-69.4528696 z m 104.83,401.5741676 c -14.84,-23.305 -33.77,-35.45 -55.2,-35.45 -15.17,0 -24.06,4.5 -38.59,19.507 -12.67,13.079 -25.61,37.65 -53.51,101.625 -10.15,23.266 -25.52,57.953 -34.15,77.083 -8.63,19.13 -29.62,66.086 -46.64,104.346 -17.02,38.26 -38.83,86.908 -48.46,108.107 -9.64,21.198 -34.85,77.882 -56.02,125.966 -21.18,48.084 -51.15096,115.34296 -66.60296,149.47296 -15.452,34.12 -39.578,87.84 -53.613,119.38 -34.093,76.62 -58.763,130.33 -91.544,199.3 -30.352,63.86 -79.86,170.93 -86.95,188.06 -6.158,14.87 -5.989,16.87 1.427,16.87 4.205,0 10.49,-3.04 20.803,-10.05 8.128,-5.52 26.847,-17.07 41.595,-25.67 14.748,-8.6 57.189,-33.85 94.313,-56.1 37.125,-22.26 76.653,-45.93 87.842,-52.61 110.28996,-65.84 390.60996,-212.54 520.13996,-272.22 32.23,-14.85 121.4,-54.21 165.68,-73.13 l 25.62,-10.94 -1.08,-6.75 c -0.59,-3.71 -61.81,-130.26796 -136.04,-281.23996 -74.23,-150.971 -145.22,-296.492 -157.76,-323.377 -12.54,-26.886 -26.61,-54.866 -31.26,-62.18 z m 669.81,1334.05696 c -0.03,2.13 12.03,28.58 26.8,58.78 25.66,52.46 27.06,54.85 31.55,53.89 2.59,-0.56 20.78,-7.5 40.43,-15.44 19.65,-7.93 77.55,-29.78 128.66,-48.56 51.11,-18.78 93.78,-35.01 94.81,-36.06 4.67,-4.74 -11.24,-39.77 -57.37,-126.31 -31.55,-59.19 -121.66,-232.33 -129.66,-249.12 -3.89,-8.17 -4.89,-9.05 -9.12,-7.99 -8.42,2.11 -150.92,63.3 -182.71,78.46 -16.93,8.07 -41.36,19.37 -54.29,25.11 -12.93,5.75 -24.26,11.19 -25.18,12.09 -0.96,0.95 4.98,13.64 14.03,29.97 26.03,46.94 48.27,88.74 76.97,144.67 15,29.22 28.75,54.75 30.56,56.73 1.81,1.98 3.29,4.44 3.29,5.47 0,1.03 2.54,4.7 5.64,8.16 3.11,3.45 5.62,8.02 5.59,10.15 z"
     fill="url(#paint0_linear_1341_154)"
     id="path1"
     style="fill:#ffffff;fill-opacity:1" />
  <defs
     id="defs17">
    <linearGradient
       id="paint0_linear_1341_154"
       x1="0.643004"
       y1="1341.42"
       x2="2737.3601"
       y2="1341.42"
       gradientUnits="userSpaceOnUse"
       gradientTransform="translate(-0.64355503,-0.42675761)"
       spreadMethod="pad">
      <stop
         stop-color="#FFECDB"
         id="stop6"
         offset="0.02893891"
         style="stop-color:#ffc18f;stop-opacity:1;" />
      <stop
         stop-color="#FFECDB"
         id="stop19"
         offset="0.19858521"
         style="stop-color:#c85479;stop-opacity:1;" />
      <stop
         stop-color="#FFECDB"
         id="stop18"
         offset="0.59003216"
         style="stop-color:#4c3b97;stop-opacity:1;" />
      <stop
         stop-color="#FFECDB"
         id="stop20"
         offset="0.80466241"
         style="stop-color:#4e5dad;stop-opacity:1;" />
      <stop
         offset="0.96784568"
         stop-color="#FF7D7F"
         id="stop7"
         style="stop-color:#5180c4;stop-opacity:1;" />
    </linearGradient>
    <linearGradient
       id="paint1_linear_1341_154"
       x1="3008.6899"
       y1="1109.6899"
       x2="10197.3"
       y2="1109.6899"
       gradientUnits="userSpaceOnUse">
      <stop
         stop-color="#FF7D7F"
         id="stop8" />
      <stop
         offset="1"
         stop-color="#C85479"
         id="stop9" />
    </linearGradient>
    <linearGradient
       id="paint2_linear_1341_154"
       x1="3008.6899"
       y1="1109.6899"
       x2="10197.3"
       y2="1109.6899"
       gradientUnits="userSpaceOnUse">
      <stop
         stop-color="#FF7D7F"
         id="stop10" />
      <stop
         offset="1"
         stop-color="#C85479"
         id="stop11" />
    </linearGradient>
    <linearGradient
       id="paint3_linear_1341_154"
       x1="3008.6899"
       y1="1109.6899"
       x2="10197.3"
       y2="1109.6899"
       gradientUnits="userSpaceOnUse">
      <stop
         stop-color="#FF7D7F"
         id="stop12" />
      <stop
         offset="1"
         stop-color="#C85479"
         id="stop13" />
    </linearGradient>
    <linearGradient
       id="paint4_linear_1341_154"
       x1="3008.6899"
       y1="1109.6899"
       x2="10197.3"
       y2="1109.6899"
       gradientUnits="userSpaceOnUse">
      <stop
         stop-color="#FF7D7F"
         id="stop14" />
      <stop
         offset="1"
         stop-color="#C85479"
         id="stop15" />
    </linearGradient>
    <linearGradient
       id="paint5_linear_1341_154"
       x1="3008.6899"
       y1="1109.6899"
       x2="10197.3"
       y2="1109.6899"
       gradientUnits="userSpaceOnUse">
      <stop
         stop-color="#FF7D7F"
         id="stop16" />
      <stop
         offset="1"
         stop-color="#C85479"
         id="stop17" />
    </linearGradient>
  </defs>
</svg>
