<?xml version="1.0" encoding="UTF-8" standalone="no"?>
<!-- Generator: Adobe Illustrator 28.3.0, SVG Export Plug-In . SVG Version: 6.00 Build 0)  -->

<svg
   version="1.1"
   id="svg16030"
   x="0px"
   y="0px"
   viewBox="0 0 4096 4096"
   style="enable-background:new 0 0 4096 4096;"
   xml:space="preserve"
   sodipodi:docname="aurora_v2_logo_white.svg"
   inkscape:version="1.3.2 (091e20ef0f, 2023-11-25)"
   xmlns:inkscape="http://www.inkscape.org/namespaces/inkscape"
   xmlns:sodipodi="http://sodipodi.sourceforge.net/DTD/sodipodi-0.dtd"
   xmlns="http://www.w3.org/2000/svg"
   xmlns:svg="http://www.w3.org/2000/svg"><defs
   id="defs16204" /><sodipodi:namedview
   id="namedview16202"
   pagecolor="#ffffff"
   bordercolor="#000000"
   borderopacity="0.25"
   inkscape:showpageshadow="2"
   inkscape:pageopacity="0.0"
   inkscape:pagecheckerboard="0"
   inkscape:deskcolor="#d1d1d1"
   showgrid="false"
   inkscape:zoom="0.27845266"
   inkscape:cx="1549.635"
   inkscape:cy="1887.2149"
   inkscape:window-width="2494"
   inkscape:window-height="1387"
   inkscape:window-x="694"
   inkscape:window-y="239"
   inkscape:window-maximized="0"
   inkscape:current-layer="svg16030" />
<style
   type="text/css"
   id="style16197">
	.st0{stroke:#000000;stroke-miterlimit:10;}
</style>

<g
   id="g16036"
   transform="matrix(1.9746566,0,0,2.0075582,-1930.0674,-2154.5494)"
   style="fill:#ffffff;fill-opacity:1">
	<path
   id="path16040"
   class="st0"
   d="m 1977.8,3065.8 c -43.5,-7.3 -67.1,-16.1 -113.8,-42.4 -10.8,-6.1 -11.3,-7.3 -5.5,-14.2 2.1,-2.4 4,-4.7 4.3,-4.9 0.3,-0.3 3.2,-3.9 6.5,-8 15.3,-19.4 79.2,-78 116.6,-107 37.7,-29.3 106,-76.5 143.5,-99.2 68.9,-41.7 156.3,-86.2 255.5,-130.1 115.1,-50.9 212.3,-87.2 349.5,-130.6 17.1,-5.4 48.5,-14.2 77.7,-21.6 5.9,-1.5 11.4,-2.5 12.3,-2.1 1.3,0.5 1.5,1.7 1,6.4 -3.7,37.5 -9.2,59.4 -22,88.5 -10.7,24.2 -30.9,52.7 -37.3,52.7 -0.9,0 -5.2,1.4 -9.6,3.1 -4.4,1.7 -16.8,6 -27.5,9.6 -25.3,8.4 -76,28.5 -99.5,39.3 -3.9,1.8 -14,6.4 -22.5,10.2 -37.9,17.1 -136.5,67.2 -169.5,86.1 -32,18.3 -92.1,56.7 -120,76.7 -4.4,3.1 -15.6,11.1 -25,17.8 -9.4,6.7 -21.3,15.4 -26.6,19.4 -14.2,10.8 -55.6,45.1 -68.9,57 -6.3,5.7 -14.9,13.3 -19,16.8 -4.1,3.6 -7.7,6.7 -8,7 -8.6,8.9 -38.6,33 -47.9,38.5 -33.2,19.4 -76.9,32 -114.6,33.1 -12.8,0.3 -17.5,0 -29.7,-2.1 z m 52,-2.5 c 7.4,-1.1 18.5,-3.2 24.5,-4.6 19.4,-4.6 47.3,-15.6 64.4,-25.3 9,-5.1 29.9,-21.4 45.6,-35.4 5,-4.5 14.3,-12.7 20.5,-18.2 6.3,-5.5 13.7,-12.1 16.4,-14.6 2.7,-2.5 13.1,-11.3 23,-19.4 9.9,-8.1 21.6,-17.8 26,-21.5 21.2,-17.6 83.7,-61.3 127.5,-89.2 56.8,-36.1 82.2,-50.1 173.5,-95.3 75.2,-37.3 126.6,-59.3 179.7,-76.9 8.9,-3 21.1,-7.3 27,-9.6 9.7,-3.8 11.3,-4.8 15.9,-9.9 14.2,-15.8 31.1,-49.1 39.2,-77.3 5.2,-18 11.3,-55.6 9.3,-57.6 -0.7,-0.7 -13.7,2.5 -48.1,11.8 -31.8,8.6 -133,41.3 -166.6,53.8 -4.7,1.7 -16.8,6.1 -27,9.7 -37.1,13.1 -100.3,37.8 -133.8,52.2 -7.5,3.2 -22.7,9.7 -33.7,14.4 -11,4.7 -30.1,13.1 -42.5,18.7 -12.4,5.6 -29.2,13.1 -37.5,16.8 -32,14.1 -132.9,65.7 -164,83.7 -32.3,18.7 -42.7,25 -56.5,33.9 -55.4,35.6 -117,79.8 -147.9,106.1 -27.8,23.6 -55.1,48.5 -73.2,66.5 -14.6,14.6 -35.4,39 -34.2,40.2 0.4,0.4 8.8,5.1 18.7,10.5 39.7,21.5 61.3,29.2 100.5,35.9 18,3.1 35.3,3.3 53.3,0.6 z m -226.6,-74.5 c -1.7,-1.4 -9.6,-5.9 -17.5,-10.1 -7.9,-4.2 -20.4,-11.1 -27.9,-15.4 -17.3,-9.9 -48.6,-27.2 -61.5,-34 -5.5,-2.9 -15.4,-8.3 -22,-12 -6.6,-3.7 -22.5,-12.5 -35.2,-19.5 -17.2,-9.5 -23.2,-13.3 -23.2,-14.6 0,-8.5 90.1,-83.1 160.5,-132.9 15.8,-11.2 54.7,-37.1 76,-50.6 28.3,-18 104.1,-59.9 150.5,-83.3 23.8,-12 38.7,-19.1 82,-39.3 17.4,-8.1 37.9,-17.2 53,-23.5 8.5,-3.5 21.6,-9.1 29,-12.3 26.2,-11.4 41.7,-17.9 63.5,-26.5 31.2,-12.4 104.3,-40 114,-43.1 2.2,-0.7 19.1,-6.5 37.5,-12.9 45.3,-15.8 70.6,-24.3 95,-32.1 11.3,-3.6 31.1,-9.9 44,-14.1 45.8,-14.7 54.9,-17.5 96.5,-29.4 67.4,-19.4 93.8,-26.3 151,-39.8 38.9,-9.1 54.6,-12.4 57.6,-11.9 l 2.1,0.3 -0.2,50 c -0.1,27.5 -0.4,52.2 -0.6,55 -0.2,2.8 -0.3,7.8 -0.4,11.2 l -0.1,6.2 -10.8,3.5 c -5.9,1.9 -17.9,5.3 -26.8,7.6 -40.2,10.4 -136.8,41.5 -203.5,65.3 -75.1,26.9 -137.8,51.4 -199,77.9 -10.2,4.4 -26.8,11.6 -37,16 -47,20.3 -125.5,58.2 -165,79.5 -9.1,4.9 -21.4,11.5 -27.5,14.8 -15.5,8.3 -60.7,34.7 -79.8,46.6 -63.4,39.7 -139.9,97.4 -190.6,143.8 -24.3,22.3 -44.9,43.8 -72.7,76.2 -2.7,3.1 -5.6,5.7 -6.4,5.7 -0.7,0.2 -2.8,-0.9 -4.5,-2.3 z m 24.9,-23.5 c 48.6,-55.5 125.6,-120.4 212.7,-179.2 30.3,-20.4 84.7,-53.6 111,-67.5 5.2,-2.8 19.8,-10.5 32.3,-17.3 41.4,-22.2 116.1,-58.2 163.2,-78.5 14.3,-6.2 30.3,-13.2 35.5,-15.5 26.1,-11.6 95,-39.7 117.5,-48 7.1,-2.6 22.2,-8.2 33.5,-12.5 32.4,-12.2 63.6,-23.3 99.5,-35.5 61.7,-20.9 126,-41 156.5,-48.9 8.5,-2.2 19.9,-5.4 25.2,-7.1 l 9.8,-3.1 v -14.7 c 0,-8.1 0.3,-34.6 0.7,-59 l 0.7,-44.2 h -2.5 c -6.1,0 -66.8,14.1 -120.3,27.9 -31.8,8.2 -106.9,29.5 -134.5,38.1 -44.5,13.9 -133.3,42.6 -145.5,47 -4.4,1.6 -25.6,9 -47,16.4 -38.9,13.4 -61.3,21.5 -94.5,34.2 -16.9,6.5 -23.8,9.1 -53.5,20.8 -15.4,6 -40.4,16.5 -61.5,25.6 -7.4,3.2 -19.1,8.2 -26,11.1 -17.8,7.4 -36.4,15.7 -60,26.7 -11.3,5.2 -23.4,10.9 -27,12.5 -54.5,25.2 -155.6,79.5 -200,107.6 -61.2,38.6 -105,70.1 -172.1,123.6 -17.8,14.2 -50.4,43 -59.8,52.9 -1.8,1.9 -3.1,4 -2.7,4.5 0.3,0.6 3.9,2.8 7.9,4.9 4,2.1 16,8.8 26.7,14.7 10.7,5.9 28.1,15.4 38.5,21 10.4,5.6 32.5,17.8 49,27 16.5,9.2 36.9,20.5 45.3,25.1 8.4,4.6 16.5,9.2 18,10.3 l 2.7,2 4.9,-5.2 c 2.6,-2.8 9.8,-10.8 15.8,-17.7 z m 406.7,3.7 c 0,-0.4 4,-2.9 11,-6.9 1.9,-1.1 7.6,-4.4 12.5,-7.3 4.9,-2.9 20,-11.6 33.5,-19.3 37.7,-21.5 43.9,-25.1 52.6,-30.3 4.5,-2.7 8.4,-4.9 8.7,-4.9 0.3,0 5.2,-2.6 10.9,-5.8 5.7,-3.2 16.8,-9.3 24.8,-13.7 8,-4.4 30.9,-16.9 51,-28 20.1,-11.1 40.8,-22.4 46,-25.2 10.8,-5.7 35,-19.2 36.5,-20.3 0.6,-0.4 7.3,-4.1 15,-8.2 26.7,-14.3 30,-16.1 38.5,-20.8 4.7,-2.6 14.4,-7.6 21.5,-11.2 7.1,-3.6 14.8,-7.5 17,-8.8 8.2,-4.6 19.8,-11 20,-11 0.2,0 3.1,-1.7 6.6,-3.8 6.8,-4.1 12.2,-7.1 26.4,-14.7 4.9,-2.6 11.9,-6.5 15.4,-8.6 3.5,-2.1 6.5,-3.8 6.8,-3.8 0.7,0 28.5,-19 34.9,-23.8 3.3,-2.5 10.4,-8.4 15.9,-13.1 5.5,-4.7 11.7,-10 14,-11.9 2.3,-1.8 4.3,-3.6 4.6,-4 1,-1.3 10.7617,-12.4017 10.7617,-11.8017 0,1.1 -28.2617,29.0017 -39.8617,38.2017 -16.2,12.9 -33.5,24.5 -53.4,35.6 -32.4,18.1 -44.1,24.5 -55,30.3 -37.7,19.8 -45.1,23.8 -46,24.5 -0.6,0.4 -10,5.6 -21,11.5 -11,5.9 -24.6,13.4 -30.2,16.6 -5.6,3.2 -10.4,5.9 -10.7,5.9 -0.3,0 -4.4,2.3 -9.3,5.1 -4.9,2.8 -14,7.8 -20.3,11.1 -6.3,3.3 -18.5,10 -27,14.7 -23.8,13.4 -40.3,22.4 -54,29.7 -5.2,2.8 -11.8,6.3 -14.5,7.8 -10,5.5 -32.2,17.9 -39,21.8 -8.3,4.7 -26.2,14.9 -32.5,18.5 -15.3,8.7 -26.1,14.8 -30,17.2 -2.5,1.5 -7.9,4.5 -12,6.7 -4.1,2.2 -11.3,6.2 -16,9 -11.3,6.6 -24.1,13.5 -24.1,13 z m -745,-155.8 c -15.1,-9.3 -53.8,-31 -94.7,-53.2 -31.7,-17.2 -56.3,-32.2 -57.8,-35.3 -2.9,-5.7 6.9,-51.3 17,-79.4 9.9,-27.5 28,-66.3 60.5,-129.4 11.8,-22.9 17.1,-33 33.1,-63 8.6,-16.1 69.4,-138.6 76.3,-153.5 1.4,-3 5.8,-12.2 9.7,-20.5 14.7,-30.5 40.5,-84.8 59,-124 1.6,-3.3 7.2,-15 12.5,-26 5.3,-11 10.6,-22 11.7,-24.5 5.7,-12.4 18.4,-39.8 33.4,-71.8 2.4,-5.1 4.4,-9.5 4.4,-9.7 0,-0.2 4.1,-8.8 9.1,-19.2 5,-10.3 12.5,-26.2 16.6,-35.3 4.1,-9.1 12.6,-27.1 18.8,-40 6.2,-12.9 13,-27.6 15,-32.5 2.1,-4.9 8.3,-18.2 13.7,-29.5 5.5,-11.3 13.6,-28.8 17.9,-39 4.3,-10.2 11.7,-26 16.3,-35.1 4.6,-9.1 11.8,-24.9 16,-35 4.2,-10.1 9.6,-22 12,-26.5 9.5,-17.7 14.4,-28.5 23,-50.8 1.9,-4.9 7.2,-16.1 11.9,-25 4.6,-8.9 10.8,-22 13.6,-29.1 4.2,-10.7 27.2,-58.8 37.6,-79 3.7,-7.2 8.2,-13.2 20.9,-28.5 15.1,-18.1 24.1,-25.2 43.6,-34.5 37.1,-17.6 82.9,-19 118,-3.6 23.1,10.1 48.6,31.9 63,53.7 11,16.6 12.1,18.8 48.8,91.8 19.6,39.1 46,91.5 58.7,116.5 12.7,25 34.5,68.2 48.6,96 14,27.8 29.5,57.7 34.3,66.5 4.8,8.8 11.4,21.4 14.6,28.1 l 5.8,12.1 20.8,-8.4 c 22.5,-9.1 35.2,-14.1 68.3,-26.8 11.8,-4.5 28,-10.8 36,-14 8,-3.2 24.4,-9.5 36.5,-14 12.1,-4.6 29.4,-11.2 38.5,-14.7 17.8,-6.9 37.2,-14 79.5,-29.2 14.9,-5.3 34.2,-12.3 43,-15.6 8.8,-3.2 23,-8.4 31.5,-11.3 8.5,-3 23.4,-8.2 33,-11.6 9.6,-3.4 26.6,-9.3 37.8,-13.1 11.1,-3.8 30.8,-10.9 43.7,-15.9 12.9,-5 24.1,-9 24.9,-9 0.8,0 1.8,1 2.1,2.2 1,3.1 -0.6,162 -1.7,164 -0.5,0.9 -3,2.3 -5.6,3.2 -2.6,0.8 -10.8,3.4 -18.3,5.7 -32.4,10 -44,13.8 -67.5,22 -13.8,4.8 -37.4,13 -52.5,18.3 -68.4,23.7 -163.5,59.6 -228.5,86.2 -11.6,4.7 -31.4,12.8 -44,17.9 -47.8,19.4 -134.6,57.4 -189,82.8 -16.5,7.7 -33.6,15.6 -38,17.5 -13.3,5.8 -88.3,43 -116.5,57.7 -24.6,12.9 -43.9,23.3 -73.5,40.1 -6.6,3.7 -14,7.9 -16.5,9.3 -43,23.9 -101.4,61.1 -142.5,90.6 -55.5,39.8 -71.6,52.2 -103.5,80 -22.1,19.3 -76.1,72.7 -92.7,91.9 -20.7,23.9 -51.3,64.8 -68.5,91.7 -14.2,22.3 -31.2,53.5 -42.4,78 -13.2,29 -27.2,71 -30,90.2 -0.6,5.4 -1.9,5.8 -7.3,2.5 z m 5,-4.1 c 0,-3.3 4.5,-21.6 8.6,-34.8 14.9,-48 48,-113.6 78.2,-155 2.2,-3 5.7,-8 7.8,-11 6.2,-9.2 28.2,-37.8 38.3,-50 30.1,-36.3 89.2,-93.2 135.1,-130.1 19.1,-15.4 62.5,-47.1 96.5,-70.5 46.1,-31.8 111.8,-70.9 184,-109.7 28.6,-15.3 118,-60.2 137,-68.7 6.6,-3 23.5,-10.7 37.5,-17.3 14,-6.6 29.3,-13.7 34,-15.8 12.2,-5.6 77.7,-34.5 89.5,-39.5 5.5,-2.3 18.1,-7.7 28,-12 9.9,-4.3 28.4,-11.9 41,-17.1 12.6,-5.1 28.6,-11.6 35.5,-14.5 22,-9.1 56.9,-23 77,-30.7 10.7,-4.1 23.3,-9 28,-10.8 4.7,-1.8 19.1,-7.2 32,-12 12.9,-4.8 33.6,-12.4 46,-17 12.4,-4.6 30.4,-11 40,-14.3 9.6,-3.3 31.9,-11 49.5,-17.2 35.9,-12.5 60.6,-20.7 83.5,-27.6 8.5,-2.6 17.1,-5.2 19,-5.9 l 3.5,-1.3 0.6,-26.9 c 0.3,-14.8 0.7,-51.3 0.8,-81.2 l 0.1,-54.3 -2.2,0.7 c -1.2,0.4 -7.9,2.9 -14.8,5.6 -16.5,6.6 -30.5,11.7 -53,19.3 -30,10.2 -67.1,23.3 -99,35 -9.6,3.5 -29,10.5 -43,15.5 -36.1,12.9 -71.9,26.2 -90.5,33.5 -8.8,3.5 -25,9.7 -36,13.8 -11,4.1 -24.7,9.4 -30.5,11.7 -5.8,2.3 -19.7,7.7 -31,12 -28.2,10.8 -55.2,21.4 -75.9,29.9 -14.5,6 -17.6,6.9 -18.7,5.8 -0.7,-0.7 -4.5,-7.7 -8.3,-15.5 -3.8,-7.8 -10.7,-21 -15.4,-29.5 -4.6,-8.4 -20.4,-38.9 -34.9,-67.8 -67.2,-133 -85.4,-169.3 -111.9,-222 -30.4,-60.4 -40.3,-77.7 -52.6,-91.6 -14.1,-15.9 -36.4,-32.1 -54.3,-39.2 -9.6,-3.9 -29.8,-7.9 -43.1,-8.7 -32.7,-1.9 -74.3,11.8 -96.6,32 -6,5.4 -27.4,31.7 -31.9,39.1 -5.3,8.8 -33.4,66.6 -38.9,80 -5.9,14.3 -10.2,23.5 -18.7,39.5 -3.1,5.8 -8.8,18.6 -12.7,28.5 -3.9,9.9 -10.7,24.8 -15,33.2 -4.3,8.3 -11.5,23.9 -16.1,34.5 -4.5,10.6 -11.7,26.3 -16,34.8 -4.3,8.5 -11.4,24.1 -16,34.5 -4.6,10.4 -11.8,26.1 -16.1,34.7 -4.3,8.6 -11.3,23.5 -15.5,33 -4.2,9.5 -10.8,23.8 -14.6,31.8 -10.6,21.9 -12.8,27.1 -12.1,28.2 0.4,0.6 0.2,0.8 -0.3,0.4 -0.5,-0.3 -1.7,1 -2.7,2.9 -2,4.2 -2.1,4.8 -0.4,3.8 0.7,-0.4 1,-0.5 0.8,-0.1 -0.3,0.3 -0.9,0.6 -1.4,0.6 -1.3,0 -3.7,6.1 -2.9,7.4 0.4,0.6 0.2,0.8 -0.4,0.4 -0.6,-0.4 -1.4,0.3 -1.7,1.4 -0.4,1.1 -4.5,10 -9.2,19.8 -7.3,15.2 -17.3,36.4 -30.9,66 -1.9,4 -3.1,7.8 -2.7,8.4 0.4,0.6 0.2,0.8 -0.3,0.5 -1.4,-0.8 -4.4,5.9 -3.6,7.9 0.4,1 0.2,1.4 -0.4,1 -1.3,-0.8 -3.5,3.8 -2.7,5.7 0.3,0.8 0.1,1.7 -0.5,2.1 -0.7,0.4 -0.8,0 -0.5,-1.1 0.3,-1 -0.4,-0.2 -1.5,1.7 -2,3.5 -2.9,6.8 -1.1,4 1.3,-1.9 1.3,-0.8 0,2.5 -0.5,1.4 -1.4,2.4 -1.9,2.1 -0.8,-0.5 -5.5,8.9 -6.3,12.4 -0.2,0.8 -0.6,1.7 -0.9,2 -1.6,1.3 -27.8,57.3 -27.2,58.2 0.4,0.7 0.2,0.8 -0.7,0.3 -1,-0.6 -1.1,-0.3 -0.6,1.1 0.4,1 0.4,1.6 0,1.1 -1,-1 -3.5,5.2 -2.7,6.6 0.4,0.7 0.2,0.7 -0.7,0.2 -1,-0.6 -1.1,-0.4 -0.7,0.9 0.4,1 0.3,1.5 -0.3,1.1 -0.9,-0.6 -1.4,1.5 -1,4.4 0.1,0.7 -0.2,1.1 -0.7,0.8 -0.9,-0.6 -11.7,20.2 -10.9,21.1 0.3,0.3 -0.1,1.1 -0.9,1.9 -0.8,0.8 -1.1,2.1 -0.8,3 0.4,1 0.2,1.4 -0.4,1 -0.6,-0.4 -1.3,0 -1.7,0.9 -0.3,0.9 -0.2,1.3 0.4,0.9 0.5,-0.3 0.2,1.3 -0.8,3.7 -2.3,5.6 -7.1,14.8 -7.8,14.8 -0.3,0 1.1,-3.1 3,-7 1.9,-3.9 3.5,-7.3 3.5,-7.8 -0.1,-2.1 -8.3,15.7 -8.4,18.2 0,1.8 -0.6,2.9 -1.3,2.8 -0.7,-0.1 -1,0.4 -0.6,1.4 0.4,1 0.2,1.4 -0.4,1 -0.6,-0.3 -1.8,0.9 -2.7,2.9 -2,4.3 -2.1,5.9 -0.2,2.4 0.8,-1.4 1.4,-1.9 1.5,-1.2 0,0.7 -0.8,2.1 -1.9,3.2 -1.1,1.1 -1.7,2.1 -1.4,2.4 0.3,0.3 -0.2,1.8 -1,3.3 -0.8,1.6 -1.6,2.4 -1.6,1.8 -0.1,-1.2 -3.9,5.6 -3.9,7 0,0.6 0.6,-0.1 1.4,-1.5 1.9,-3.4 1.9,-1.7 0,2 -0.8,1.6 -1.9,3 -2.5,3 -0.5,0 -0.7,0.7 -0.3,1.7 0.4,1 0.2,1.4 -0.4,1 -0.6,-0.3 -1,0.4 -0.9,1.6 0,1.2 -0.5,2.1 -1.1,2 -0.7,-0.1 -1,0.4 -0.6,1.4 0.4,1.1 0.2,1.4 -0.5,0.9 -0.8,-0.5 -0.9,-0.2 -0.5,1 0.4,1.2 0.3,1.5 -0.5,1 -0.8,-0.5 -0.9,-0.2 -0.5,1 0.5,1.3 0.3,1.5 -0.7,0.9 -0.8,-0.5 -1.1,-0.4 -0.7,0.2 0.8,1.3 -0.3,4.4 -1.3,3.7 -1.1,-0.7 -2.2,2.4 -1.3,3.7 0.4,0.7 0.2,0.8 -0.7,0.2 -1,-0.6 -1.1,-0.4 -0.7,0.9 0.4,0.9 0.3,1.5 -0.2,1.2 -1.1,-0.7 -2.3,2.3 -1.4,3.7 0.4,0.6 0.2,0.8 -0.4,0.4 -1.1,-0.7 -3.6,4 -2.8,5.3 0.3,0.5 0.1,1 -0.3,1.2 -0.5,0.2 -10.9,20.8 -23.2,45.8 -12.3,25 -26.3,53.3 -31.2,62.8 -4.9,9.5 -8.6,17.3 -8.1,17.3 0.5,0 0.3,0.3 -0.3,0.8 -0.6,0.4 -5.2,8.8 -10.2,18.7 -5,9.9 -10.9,21.4 -13.2,25.5 -3.2,5.8 -26.3,50.3 -39.6,76.4 -0.9,1.8 -1,2.6 -0.3,2.1 0.9,-0.6 0.9,-0.2 0,1.4 -0.6,1.2 -1.6,2.1 -2.2,2.1 -0.6,0 -0.7,0.4 -0.4,1 0.3,0.6 0.2,1 -0.3,1 -0.5,0 -1.2,0.7 -1.5,1.6 -0.4,1 -0.2,1.3 0.5,0.9 0.7,-0.5 0.7,0 0,1.4 -0.6,1.2 -1.6,2.1 -2.1,2.1 -0.5,0 -0.6,0.7 -0.3,1.7 0.4,1 0.2,1.4 -0.4,1 -0.6,-0.3 -1,0.4 -0.9,1.6 0,1.3 -0.5,2.1 -1.3,1.9 -0.7,-0.2 -1,0.2 -0.7,0.7 0.3,0.6 0.2,1.8 -0.4,2.8 -0.6,1 -1.1,1.3 -1.1,0.8 -0.1,-1.2 -2.9,3.6 -2.9,5 0,0.6 0.6,-0.1 1.4,-1.5 0.8,-1.4 1.4,-1.9 1.4,-1 0,2 -2.4,5.1 -3.3,4.3 -0.4,-0.4 -0.4,0 -0.1,0.9 0.6,1.5 -4.8,13.8 -6,13.8 -0.3,0 0.4,-1.8 1.5,-4 1.1,-2.2 2,-4.3 2,-4.8 -0.1,-1.1 -6.8,11.9 -6.9,13.2 0,0.6 0.4,0.3 0.9,-0.5 1.3,-2.1 1.2,-0.6 -0.1,2.4 -0.6,1.4 -1.5,2.3 -2,2 -0.5,-0.3 -0.5,0.3 -0.2,1.2 0.4,1.2 0.3,1.5 -0.5,1 -0.8,-0.5 -0.9,-0.2 -0.5,1 0.4,1.1 0.3,1.5 -0.4,1.1 -0.7,-0.4 -0.9,0 -0.6,1.2 0.3,1 0,2.2 -0.6,2.6 -0.7,0.4 -0.9,0 -0.5,-1.1 1.4,-4.7 -4.9,8.7 -9.8,20.7 -11.4,28 -20,57.9 -23.7,83 -1.9,12.9 -1.9,13.5 -0.3,15.1 3.5,3.2 28.3,17.9 51.3,30.4 34.9,19 58.2,31.9 80.5,44.9 11,6.4 20.6,11.6 21.2,11.6 0.4,0.5 1,-0.5 1,-1.7 z m 35.6,-515.1 c 0.4,-1 0.9,-1.5 1.2,-1.2 0.3,0.3 0,1.1 -0.7,1.8 -1,1 -1.1,0.9 -0.5,-0.6 z m 181,-34.6 c -0.3,-0.5 2.4,-7.1 6,-14.8 3.6,-7.6 10.2,-21.7 14.6,-31.3 4.4,-9.6 13.2,-28.1 19.5,-41 22.4,-45.8 36.8,-76.8 66.3,-142.5 3.7,-8.2 11.6,-25.3 17.5,-38 5.9,-12.7 14,-30.4 18,-39.5 14.2,-32.3 33.3,-74.6 36.7,-81.5 1.9,-3.9 7.8,-16.7 13.1,-28.5 5.2,-11.8 11.6,-26 14.2,-31.5 2.6,-5.5 8.2,-17.8 12.5,-27.5 4.3,-9.6 10.2,-22.7 13.2,-29 3,-6.3 7.6,-16.4 10.2,-22.5 21,-47.9 25.1,-55.8 32.8,-63.6 11.1,-11.2 21.4,-12.4 34.5,-3.9 8.4,5.4 13.4,13.5 27.5,44 9.6,20.9 57.8,117.8 120,241.2 16.3,32.4 29.4,59.4 29.1,60.2 -0.3,0.8 -2.2,2 -4.2,2.7 -5.3,1.7 -69.7,29.4 -90.2,38.7 -37,16.9 -109.8,52.8 -148,73 -4.7,2.5 -18.4,9.7 -30.5,16 -32.8,17.2 -75.4,40.5 -89,48.7 -19.2,11.6 -85.6,50.6 -99.5,58.4 -4.1,2.3 -10.4,6.2 -13.9,8.7 -6,4.3 -9.3,5.4 -10.4,3.5 z m 10.9,-7.1 c 2.8,-2 9.3,-6 14.5,-9 10,-5.6 51.5,-30 86,-50.5 22.5,-13.4 59.1,-33.8 82.5,-46 8.2,-4.3 22.2,-11.7 31,-16.4 74.1,-39.6 151,-76.6 222,-106.6 8.8,-3.7 18.7,-8 22,-9.5 3.3,-1.5 7.7,-3.3 9.8,-3.9 2.1,-0.6 3.8,-1.7 3.8,-2.3 0,-0.6 -9.1,-18.9 -20.2,-40.7 -47.5,-93.3 -99.4,-197.7 -126.2,-253.9 -15.5,-32.4 -18.8,-38.3 -25,-44 -11.6,-10.7 -23.2,-10.5 -33.8,0.6 -7.7,8.1 -15.5,23 -30.7,58.5 -2.3,5.4 -8.2,18.4 -13,29 -4.9,10.6 -10.3,22.6 -12.1,26.7 -1.8,4.1 -7.9,17.5 -13.6,29.7 -5.7,12.2 -12.2,26.6 -14.5,32 -2.3,5.4 -8.2,18.3 -13.2,28.8 -5,10.4 -11.7,25.1 -15,32.5 -3.3,7.4 -8.8,19.8 -12.3,27.5 -3.5,7.7 -10.2,22.6 -14.8,33 -4.6,10.4 -12.9,28.4 -18.2,40 -5.3,11.6 -12.1,26.4 -15,33 -16.6,37.7 -34,75 -59,126.5 -9,18.4 -20.7,42.9 -26,54.5 -5.4,11.6 -11.3,24 -13.1,27.7 -1.9,3.7 -3.4,7 -3.4,7.3 0,0.8 1.4,0 7.5,-4.5 z M 1579,2192.9 c 1.2,-2.5 2.3,-4.3 2.6,-4.1 0.5,0.5 -3.6,8.6 -4.3,8.6 -0.3,-0.1 0.5,-2.1 1.7,-4.5 z m 3.4,-6.9 c 0.4,-1 0.9,-1.5 1.2,-1.2 0.3,0.3 0,1.1 -0.7,1.8 -1,1 -1.1,0.9 -0.5,-0.6 z m -295.6,509.6 c -21.9,-15.8 -41.7,-33.9 -52.2,-47.8 -7.8,-10.3 -18.9,-27.6 -23.3,-36.5 -12.5,-24.9 -21.4,-56.9 -25.2,-90.1 -1.7,-14.4 -1.8,-40.6 -1.8,-424.9 0,-427.9 -0.1,-419.8 4.1,-446 5.7,-35.4 16.3,-65.8 31.6,-90.4 25.8,-41.4 58.2,-70.8 107.8,-97.9 21,-11.4 51.7,-28.6 86,-48.2 15.7,-8.9 33.2,-18.8 39,-22 5.8,-3.2 14.6,-8.1 19.5,-11 4.9,-2.9 14.2,-8.1 20.5,-11.5 6.3,-3.4 18.5,-10.4 27,-15.5 8.5,-5.1 23.2,-13.5 32.5,-18.7 9.3,-5.2 21.9,-12.4 28,-15.8 6.1,-3.5 17.3,-9.7 25,-14 7.7,-4.2 20.1,-11.2 27.5,-15.5 7.4,-4.3 20.2,-11.5 28.5,-16 14.2,-7.7 30,-16.5 78.8,-44 11.7,-6.6 25.9,-14.5 31.5,-17.5 5.6,-3 17.3,-9.5 26,-14.3 8.7,-4.8 24.8,-13.7 35.9,-19.7 11.1,-6 27.8,-15.1 37,-20.3 17.7,-9.9 21.8,-11.9 40.2,-19.8 22.2,-9.5 37.9,-14.3 59.6,-18 10.9,-1.9 16.7,-2.2 36,-2.2 19.7,0 24.5,0.3 33.4,2.2 41.1,8.6 63.2,18.3 148.1,64.9 2.5,1.4 10.1,5.7 17,9.7 6.9,4 15.6,9 19.5,11 8.2,4.4 18.1,9.9 39.5,21.7 8.5,4.7 23.4,12.8 33,18.1 9.6,5.3 24.2,13.3 32.5,18 23.9,13.4 47.9,26.8 62.5,34.8 7.4,4 19.1,10.5 26,14.3 6.9,3.8 18.8,10.4 26.5,14.7 7.7,4.3 21.2,11.7 30,16.7 8.8,5 20.3,11.4 25.5,14.3 5.2,2.9 14,7.8 19.5,10.8 5.5,3.1 19.9,11.3 32,18.3 25.6,14.8 48.2,27.4 79,44.2 77.4,42.2 97.6,55.8 125.5,84.4 23.3,23.9 38.3,46.9 51.2,78.4 10.8,26.5 15.8,51.2 17.9,88.7 1.2,20.6 0.9,23.3 -2.5,23.3 -1.5,0 -22.5,8.6 -46.1,18.9 -18.2,7.9 -29.9,12.7 -59.5,24.1 -16.6,6.4 -38.1,14 -39.6,14 -0.8,0 -1.3,-10.8 -1.7,-36.2 -0.7,-38.8 -1.6,-47.5 -6.3,-61.8 -8.5,-25.5 -29.1,-51.3 -54,-67.7 -6.7,-4.4 -21.1,-12.6 -32,-18.3 -10.9,-5.7 -25.5,-13.5 -32.4,-17.3 -21.4,-12 -47.8,-26.7 -94.5,-52.5 -24.8,-13.7 -57.8,-32.1 -73.5,-40.9 -30,-16.8 -74,-41 -97.5,-53.5 -7.7,-4.1 -21.2,-11.4 -30,-16.2 -8.8,-4.8 -25.4,-13.8 -37,-20 -11.6,-6.2 -28.9,-15.7 -38.5,-21.2 -35,-19.9 -99.3,-55.3 -119.5,-65.8 -25.9,-13.5 -39.2,-17.1 -58.5,-16.1 -20.7,1.1 -35.9,6.2 -61.9,21 -14.6,8.3 -33.1,18.6 -89.1,49.6 -16.2,9 -34.9,19.6 -41.5,23.5 -6.6,3.9 -19.2,11.1 -28,16 -8.8,4.8 -20.5,11.4 -26,14.5 -5.5,3.1 -19.7,11 -31.5,17.5 -11.8,6.4 -30.1,16.6 -40.5,22.5 -10.4,5.9 -28.2,15.8 -39.5,22.1 -11.3,6.2 -32.4,18.1 -47,26.5 -14.6,8.4 -46.8,26.5 -71.7,40.3 -24.9,13.8 -51.6,28.9 -59.5,33.5 -7.9,4.6 -23.3,13.4 -34.2,19.6 -35.9,20.4 -51,31.5 -62.5,45.9 -12.7,16 -20,34.8 -22.1,57 -0.6,5.9 -1,178.2 -1.1,431.2 -0.1,231.8 -0.5,425.9 -0.9,431.3 l -0.7,9.9 -14.1,27.7 c -18,35.4 -23.1,49.7 -31.1,87.6 -1.6,7.7 -3.3,16.8 -3.6,20.2 -0.4,4 -1.1,6.2 -2,6.2 -0.7,-0.3 -3.6,-2 -6.5,-4 z m 6,-2.8 c 0,-4.3 6,-33.3 9.7,-47 5.6,-20.9 10.7,-33.3 25.4,-62.2 8.8,-17.3 14,-28.8 14.4,-31.5 0.3,-2.4 0.8,-199.4 1,-437.8 0.4,-471.6 0,-437.5 5.6,-454.9 10.4,-32.1 29.6,-50.8 82.9,-80.8 10.7,-6 28.5,-16.1 39.5,-22.5 11,-6.3 34.8,-19.7 53,-29.8 18.2,-10.1 47.8,-26.7 66,-37.1 18.2,-10.4 43.3,-24.5 56,-31.5 12.7,-7 28.4,-15.9 35,-19.7 6.6,-3.8 20.8,-11.7 31.5,-17.5 10.7,-5.8 28.7,-15.8 40,-22.2 11.3,-6.4 25.7,-14.5 32,-18 6.3,-3.5 15.3,-8.6 20,-11.5 8.4,-5.1 43.5,-24.8 68,-38 14.4,-7.8 41.6,-22.9 64,-35.6 31.1,-17.6 45.7,-22.2 70,-22.2 27.3,0 32.5,2.4 150,68.3 49.8,27.9 99.3,55.2 137,75.3 10.2,5.5 26.8,14.5 37,20.2 10.2,5.7 23,12.6 28.5,15.6 5.5,2.9 16.1,8.8 23.5,13 7.4,4.2 29.9,16.8 50,27.9 20.1,11.1 43.9,24.4 53,29.5 9.1,5.1 24.1,13.5 33.5,18.6 9.4,5.1 20.8,11.6 25.5,14.5 4.7,2.8 19.8,10.9 33.5,18.1 29.8,15.4 48.8,27.7 60.1,38.9 19.8,19.7 33,44.1 37,68.5 0.9,5.4 1.6,21.5 2,44.1 l 0.7,35.6 14.6,-5.2 c 8,-2.8 18.4,-6.7 23.1,-8.5 4.7,-1.8 14.8,-5.8 22.5,-8.8 7.7,-3 26.6,-10.9 42,-17.5 15.4,-6.6 31.4,-13.3 35.5,-14.8 l 7.5,-2.8 -0.3,-16.3 c -0.4,-25.9 -4.9,-53.7 -12.2,-75.7 -12.5,-37.8 -32,-69.5 -60,-97.2 -26.1,-25.8 -48.4,-40.5 -121.1,-80 -25,-13.6 -51.4,-28.3 -74,-41.4 -12.4,-7.1 -29,-16.6 -37,-21 -8,-4.4 -23.7,-13.2 -35,-19.5 -11.3,-6.3 -27.9,-15.5 -37,-20.4 -9.1,-4.9 -18.5,-10.2 -21,-11.7 -4,-2.5 -31.6,-17.7 -59,-32.5 -11.6,-6.3 -34.2,-18.8 -55,-30.5 -8.5,-4.8 -20.4,-11.3 -26.5,-14.5 -15.3,-8.1 -22.7,-12 -32.5,-17.5 -10.3,-5.7 -35.4,-19.6 -43,-23.7 -3,-1.6 -8.9,-5 -13,-7.5 -24.9,-15 -92.6,-49.8 -110.5,-56.8 -21.8,-8.5 -38.4,-13 -58.3,-15.7 -21.6,-2.9 -53.4,-0.5 -78.7,6 -13.4,3.4 -21.3,6.2 -38.5,13.6 -17.7,7.6 -22.5,10 -41,20.5 -8,4.5 -21.2,11.8 -29.5,16.3 -8.2,4.4 -19.3,10.5 -24.6,13.4 -5.3,2.9 -14.3,8 -20,11.2 -5.7,3.2 -18.1,10 -27.4,15.1 -9.3,5.1 -23.8,13.1 -32,17.8 -17.9,10.2 -56.5,31.8 -87.5,49.1 -12.4,6.9 -26,14.5 -30.3,16.9 -73.3,41 -92.9,52.2 -105.2,59.9 -3.3,2.1 -10.5,6.1 -16,9.1 -5.5,3 -14.7,8.1 -20.5,11.5 -5.8,3.4 -16.8,9.7 -24.5,13.9 -7.7,4.2 -23.9,13.4 -36,20.3 -30.7,17.5 -67,37.9 -86.1,48.2 -18.4,10 -18.7,10.2 -30.9,18.4 -27.5,18.5 -44.9,34.8 -63.4,59.6 -26.8,35.9 -40.6,72.5 -47.2,126 -1.7,13.5 -2.5,810 -0.8,837.5 1.6,26.3 5.6,48 13.6,73.7 9.6,30.9 30.2,63.8 54,86.8 8.8,8.5 34.7,28.9 36.6,28.9 0.5,0 0.8,-1.1 0.8,-2.5 z M 2034.3,2527 c -0.9,-1.3 -3.3,-7.3 -5.4,-13.4 -5.1,-14.6 -9.4,-22.4 -16.3,-29.8 -6.8,-7.3 -15.8,-12.3 -27.3,-15.4 -16.4,-4.4 -17.6,-4.9 -17.3,-7.7 0.4,-3.7 3.7,-5.7 19.5,-11.6 17.1,-6.5 19.5,-7.9 27,-16 6.8,-7.3 10.8,-14.5 15.3,-27.7 4.5,-12.9 8.5,-16.1 10.5,-8.2 2.5,10.2 12.6,30.4 19.5,38.9 4.1,5 6.4,6.9 12.3,9.6 4,1.9 9.7,4 12.7,4.7 7.3,1.7 15.9,5.5 16.6,7.4 0.3,0.9 0.3,2.7 0,4 -0.5,2.1 -1.9,2.9 -9.4,5.1 -27.5,8.3 -43,24.4 -49.9,51.9 -2.1,8.5 -3,10.5 -4.5,10.5 -0.9,0 -2.5,-1 -3.3,-2.3 z m 6.2,-13.2 c 1.4,-4.9 3.8,-11.5 5.4,-14.7 7.9,-15.8 24.5,-28.7 44.7,-34.7 11.5,-3.4 10.7,-6.2 -2.8,-10.1 -22.1,-6.3 -28.2,-10.8 -38.2,-28 -3.2,-5.6 -11.8,-25.6 -11.8,-27.5 0,-4.1 -2,-1.4 -4.9,6.8 -4.9,13.7 -10.4,23.3 -17.4,30.5 -6.9,7.1 -11.4,9.7 -26.7,15.4 -10.6,4 -18,7.6 -18,8.8 0,0.8 4.9,2.5 15,5.1 15.7,4.1 27.6,12.2 35.6,24.3 3,4.6 11.5,24.1 11.5,26.6 0,0.5 1,3.1 2.2,5.6 1.6,3.3 2.3,4.1 2.6,2.8 0.1,-1 1.4,-5.9 2.8,-10.9 z m 355.7,-114.2 c -1.5,-5.2 -26.3,-53.6 -36.4,-71.2 -2,-3.6 -8.1,-15.1 -13.5,-25.5 -15,-29.1 -24.3,-46.3 -35.9,-66.5 -11.1,-19.3 -12.5,-22.4 -11,-24.8 0.5,-0.8 5.6,-3.4 11.4,-5.7 5.8,-2.3 18.1,-7.9 27.5,-12.3 9.4,-4.4 29.6,-13.3 45,-19.8 15.4,-6.5 33.8,-14.1 40.9,-17.1 7.1,-3 13.6,-5.3 14.3,-5.1 0.7,0.2 3.9,5 6.9,10.8 3,5.8 11.4,21.8 18.6,35.5 19.9,38 42.1,79.9 49.2,92.5 16.5,29.5 24.6,47.1 25.4,55.1 0.5,4.5 0.4,4.6 -2.9,5.3 -1.8,0.4 -7,2.1 -11.4,3.8 -4.4,1.7 -12.7,4.8 -18.5,6.8 -5.8,2 -16.1,5.8 -23,8.3 -6.9,2.5 -18.8,6.8 -26.5,9.5 -7.7,2.7 -23.6,8.9 -35.3,13.6 -11.7,4.7 -22,8.6 -22.8,8.6 -0.8,0 -1.7,-0.9 -2,-1.8 z m 10.5,-3.7 c 3.6,-1.3 12,-4.6 18.6,-7.4 12,-4.9 28.4,-11 58.5,-21.7 5.2,-1.9 14.7,-5.3 21,-7.6 6.3,-2.3 16.1,-5.8 21.8,-7.8 7.8,-2.7 10.2,-4 10.2,-5.4 0,-5.7 -8.8,-24.4 -26.3,-56 -4.2,-7.5 -11.9,-21.9 -17.3,-32 -5.4,-10.1 -11.4,-21.5 -13.4,-25.4 -2.1,-3.9 -6.3,-11.9 -9.5,-18 -7.5,-14.3 -14.1,-26.7 -23.2,-43.9 -4,-7.6 -7.4,-14.2 -7.4,-14.6 0,-0.4 -0.6,-1.3 -1.3,-1.8 -1,-0.8 -5.8,0.8 -18.8,6.4 -9.6,4.1 -24.7,10.4 -33.5,14.1 -25.3,10.4 -36.3,15.2 -47,20.6 -5.5,2.8 -16.3,7.7 -23.9,10.9 -7.7,3.2 -14.1,6 -14.3,6.3 -0.6,0.6 3.9,9 16.1,30.3 6.2,10.9 16.2,29.2 22.1,40.7 21.6,42 24.8,47.9 25.9,46.8 0.4,-0.4 0.5,0 0.1,0.8 -0.3,0.8 0.1,2.4 1,3.5 0.9,1.1 1.3,1.3 0.9,0.6 -0.5,-0.9 -0.3,-1.2 0.4,-0.7 0.6,0.4 0.9,1.1 0.6,1.6 -0.8,1.3 1.7,6 2.8,5.3 0.6,-0.3 0.7,-0.1 0.3,0.5 -0.4,0.6 0.7,3.7 2.5,6.9 7.8,14.4 23.9,46.6 23.9,47.9 0.3,2.1 1.5,1.9 9.2,-0.9 z m -37.3,-57.3 c -0.5,-1.4 -0.4,-1.5 0.6,-0.6 0.7,0.7 1,1.5 0.7,1.8 -0.3,0.3 -1,-0.2 -1.3,-1.2 z m -852.9,-302.7 c -1.4,-1.4 -3.6,-7.6 -12.4,-35.1 -4.3,-13.5 -9.9,-23.1 -18.3,-31.6 -6.6,-6.6 -9.2,-8.4 -20.5,-14.1 -7.2,-3.6 -17.1,-7.7 -22,-9.2 -13.2,-4 -17.9,-6.6 -18.3,-9.7 -0.2,-1.4 0.4,-3.1 1.2,-3.8 0.8,-0.7 7,-3.2 13.8,-5.6 35.1,-12.4 49.3,-22.9 59.4,-44.1 4.7,-9.9 7.2,-16.2 14.9,-38.5 1.6,-4.8 2.8,-6.6 4.2,-6.8 2.9,-0.4 4.7,2.9 10.2,19.6 7.7,23.4 16.7,39.7 27.8,50.3 9.2,8.7 20.4,14.3 42.1,20.9 11.5,3.5 13.3,5.1 11.2,10 -1.2,3 -2.7,3.7 -18,8.9 -3.6,1.2 -11.4,4.6 -17.5,7.5 -22.5,10.9 -32.8,24.6 -44.5,59.5 -7.6,22.9 -9.3,25.8 -13.3,21.8 z m 8.8,-18.1 c 9.3,-28.4 15,-39.2 27.4,-51.5 7.4,-7.4 10,-9.3 19.1,-13.6 5.8,-2.8 13.4,-6.1 17,-7.3 13.9,-4.8 17,-6.2 18,-8 1.2,-2.3 -0.1,-3.5 -5.7,-5 -2.3,-0.6 -9.3,-2.8 -15.6,-5 -30.8,-10.4 -44.7,-26.3 -59.2,-68 -3.3,-9.6 -6.5,-17.6 -7,-17.7 -0.6,-0.2 -2.3,3.6 -3.9,8.4 -4.2,12.8 -11.3,30.7 -15.1,38.2 -8.9,17.7 -27.3,30.4 -60,41.8 -5.5,1.9 -10.7,4.1 -11.5,4.9 -2.2,2.1 -1.1,2.7 15,7.9 17.6,5.7 35.5,15.4 44,23.9 11.6,11.7 14.3,17.4 25,51.6 2.3,7.4 4.7,14.1 5.3,14.9 1.4,1.6 2.2,0 7.2,-15.5 z m 887.1,-237.7 c -0.8,-1.2 -3.5,-9 -6.1,-17.2 -9.3,-29.9 -13.8,-39.3 -24,-49.8 -9.4,-9.8 -29,-19.7 -53.9,-27.2 -4.9,-1.5 -9.1,-3.3 -9.4,-4.2 -1.1,-2.7 4.9,-6.9 14.7,-10.3 40.2,-13.9 54.9,-25.7 65.8,-53 4.8,-12 10.5,-28.2 11.1,-31.9 0.3,-1.9 1.4,-3.9 2.4,-4.5 1.5,-0.9 2.2,-0.6 4.1,1.7 1.3,1.6 2.8,4.3 3.3,6 5,15.1 14.1,35.7 19.6,44.4 7.2,11.4 18.1,21.5 29.6,27.2 2.4,1.2 10.2,4.2 17.3,6.6 20.5,7 24.8,9.8 22,14 -1.1,1.7 -7.6,4.7 -21.1,9.8 -22,8.3 -33.9,15.8 -42.8,27.3 -6,7.7 -14.3,25 -19.1,39.8 -4.9,15.1 -8.7,23.5 -10.7,23.5 -0.7,0 -2,-1 -2.8,-2.2 z m 10.9,-22.8 c 11.3,-32.5 19.4,-44.6 38.1,-56.7 5.8,-3.8 13.9,-7.3 32.3,-14.3 8.4,-3.2 13.1,-5.7 13.1,-6.9 0,-1 -13.4,-6.5 -24.5,-9.9 -29.7,-9.3 -44.3,-25.7 -60.4,-67.9 -2.8,-7.3 -5.7,-14.2 -6.5,-15.3 -1.4,-2 -1.5,-1.9 -2.1,1.3 -1.2,6.2 -10.6,31.1 -15.6,41.3 -10.9,22.1 -25,32.1 -65.2,46 -4.2,1.5 -8.4,3.4 -9.2,4.3 -1.4,1.5 -0.9,1.9 6.2,4 20.4,6 41,15.6 50.7,23.6 5.3,4.3 12.7,14.1 16.6,21.8 3.7,7.4 5.8,12.9 11.4,31.2 2.5,8.2 5.1,15.8 5.7,16.9 1,1.9 1.1,1.9 2.3,-0.4 0.8,-1.4 4,-9.9 7.1,-19 z m -788,-30.3 c -0.8,-1.3 -2.9,-6.6 -4.6,-11.8 -3.9,-12.1 -7.9,-18.7 -15.6,-25.8 -8.6,-7.9 -15.7,-11.1 -30.5,-13.6 -2,-0.3 -3.9,-1.3 -4.3,-2.2 -1.3,-3.3 2.5,-6.3 16.8,-13.3 15,-7.3 23.2,-13.5 27.6,-20.6 2.1,-3.4 6.6,-14.9 9.6,-24.7 1,-3.3 2,-4.7 3,-4.5 0.9,0.2 3.7,5.4 6.8,12.7 2.9,6.8 7.4,15.5 10,19.3 6.9,10.1 11.5,13.2 33.2,23 3.4,1.5 6.5,3.5 6.9,4.4 0.6,1.6 -2.2,5.5 -3.9,5.5 -1.2,0 -13.9,5.3 -20.8,8.8 -3,1.5 -7.3,4.6 -9.5,6.8 -5.2,5.3 -13.3,19 -15.5,26.2 -3.2,11.6 -6.1,14.6 -9.2,9.8 z m 6.5,-10.7 c 2.4,-7.7 9.2,-19.7 14.8,-26.1 4.4,-5 12.6,-9.7 25.9,-15 4.6,-1.8 8.1,-3.7 8,-4.2 -0.1,-0.5 -5.9,-3.5 -12.8,-6.6 -10.8,-4.9 -13.3,-6.5 -19,-12.2 -7.5,-7.5 -12.7,-16 -17.1,-27.7 -1.7,-4.5 -3.4,-8.2 -3.7,-8.2 -0.3,0 -1.1,1.5 -1.7,3.2 -0.6,1.8 -2.1,5.7 -3.3,8.8 -1.2,3 -2.6,6.8 -3.1,8.4 -2.8,9.1 -15,19.2 -33.5,27.6 -5.7,2.6 -11.1,5.3 -11.9,6 -1.9,1.6 -1.1,3 1.9,3 6.3,0 18.4,4.2 24.9,8.6 11.9,8.1 18.2,17.1 22.7,32.4 1.2,4.1 2.7,8.3 3.2,9.4 1.2,2.5 2.1,1.2 4.7,-7.4 z m -183,-8.9 c -1.7,-6.5 -7.1,-13.2 -13.6,-17.2 -3.3,-2 -6,-4.2 -6.2,-5 -0.2,-0.8 2.6,-3.7 6.1,-6.4 6.4,-5 12.8,-13.6 14.1,-18.7 0.9,-3.6 3.3,-3.5 5.4,0.4 5,9.1 9.5,15 14.6,19 3.1,2.4 5.6,5 5.6,5.7 0,0.7 -1.4,2.1 -3.2,3 -7.4,4 -15.7,13.8 -17.4,20.5 -1,4.2 -4.1,3.5 -5.4,-1.3 z m 11.9,-14.4 c 2,-2.1 5.1,-4.7 6.9,-5.8 l 3.3,-2 -6.3,-6.2 c -3.5,-3.4 -7.7,-8.9 -9.4,-12.2 -3.1,-5.8 -3.2,-5.9 -4.1,-3.4 -2.2,5.7 -7.6,12.7 -13.3,17.1 l -6,4.7 3.8,1.8 c 4.9,2.3 11.6,9 14.3,14.4 l 2.2,4.2 2.5,-4.4 c 1.3,-2.4 4.1,-6.1 6.1,-8.2 z m 1908.1,-518.7 c 0,-0.6 0.7,-1 1.6,-1 0.9,0 1.3,0.4 0.9,1 -0.3,0.6 -1,1 -1.6,1 -0.6,0 -0.9,-0.4 -0.9,-1 z m 1.5,-10 c -1.1,-1.7 0.1,-2.1 1.5,-0.5 0.8,1 0.9,1.5 0.2,1.5 -0.6,0 -1.4,-0.4 -1.7,-1 z m -4.5,-1 c -1.3,-0.8 -1.2,-1 0.2,-1 1,0 1.8,0.4 1.8,1 0,1.3 -0.1,1.3 -2,0 z M 2231.9,2970.8 c 88.7,-49.9 -88.6,49.3 -88.6,49.3 l -7.5,4.9"
   sodipodi:nodetypes="cccccccccccccsscccccsccccccccccccsscccccccsccccsscccccscccssccscsccccccccccccccccscccccccccccccsccccccccccccsccsccccccccccccccsssssccccscsccssssccccscsccsscsccsccccsssssccccccscscccccccccsccscssccsssccccccccccscsccccscccccscssccccccccccccccccccccsccccccccsccscccsssscccccccccccccssccssccccccccccsccssssccccccscscccscsccccccccccccccsccscccscscccssccssccccssccsccsscccccssccccccccccccssscsccccsssccsscccccscsssccssccccssscscccccccccsssssccsccscccscscccccsccccccccccccccsssccccccssscssssccccscccccssssccccsccccsssssccsccssscccsccsccsccssssccccccsccscccsccccsscccccscscscssscccccccccccscscccccssssssscccsccscsssscccccccssscccccccssscccccccccccccsssccccsssccccccccssccccccccccccccccsccscccscccsccscccccccsssssssccccssssssccccscscscccsccccccccscsccccscccccscscccccscccccccccccsccccccccccccccccccscccccccscccccccccsscccscccccccccccccccccccccccccccscccccccscscscccccsccccccsccccscccscccccccccccssscssccsccsscccc"
   style="fill:#ffffff;fill-opacity:1" />
<path
   style="fill:#ffffff;fill-opacity:1;stroke-width:120.771;paint-order:markers stroke fill"
   d="m 2385.3351,2369.6178 c -7.48,-15.0408 -13.5868,-28.2156 -13.5708,-29.2774 0.016,-1.0618 -1.2566,-3.3381 -2.8279,-5.0585 -1.5714,-1.7204 -2.8571,-3.5481 -2.8571,-4.0614 0,-0.5134 -0.7499,-1.74 -1.6665,-2.7259 -0.9167,-0.9859 -7.8806,-13.7018 -15.4755,-28.2577 -14.5367,-27.86 -25.7996,-48.6822 -38.9807,-72.0653 -4.5846,-8.1329 -7.5917,-14.4517 -7.1029,-14.9251 0.4662,-0.4515 6.2045,-3.1613 12.7518,-6.0217 6.5473,-2.8605 18.9186,-8.4904 27.4918,-12.5109 16.0996,-7.5502 88.2647,-38.0327 92.5268,-39.0833 2.1402,-0.5276 2.649,-0.089 4.6195,3.9803 4.0501,8.3641 49.6863,94.6093 65.6624,124.0914 23.3593,43.1071 31.4165,60.5554 29.0539,62.918 -0.5253,0.5253 -22.1319,8.6087 -48.0148,17.9631 -25.8828,9.3544 -55.2022,20.2401 -65.1541,24.1904 -9.9519,3.9504 -19.1658,7.4093 -20.4752,7.6866 -2.275,0.4818 -2.9855,-0.7116 -15.9807,-26.8426 z"
   id="path29285" /><path
   id="path32012"
   style="fill:#ffffff;fill-opacity:1;stroke-width:118.765;paint-order:markers stroke fill"
   d="m 1999.9121,1473.6191 c -7.0905,0.18 -14.0017,0.8913 -20.4355,2.1719 -29.4124,5.8544 -54.7237,18.4715 -69.4102,34.5957 -12.2778,13.4799 -25.252,30.573 -30.0117,39.543 -8.0345,15.1418 -29.9329,60.5888 -36.6016,75.9609 -3.4884,8.0412 -10.1616,22.2521 -14.8301,31.5782 -4.6681,9.3257 -11.0659,23.1865 -14.2168,30.8007 -3.1504,7.6142 -9.731,22.2727 -14.621,32.5743 -4.89,10.3013 -12.6772,27.1592 -17.3047,37.4609 -4.6275,10.3016 -12.3346,26.9481 -17.127,36.9922 -4.7924,10.0441 -11.5416,24.5824 -14.998,32.3086 -3.4564,7.7263 -11.7041,25.4894 -18.3282,39.4746 -6.6236,13.9851 -14.0023,29.7907 -16.3964,35.1211 -2.3941,5.3305 -8.7325,19.0264 -14.086,30.4355 -5.3535,11.4091 -9.7344,21.4181 -9.7344,22.2422 0,0.8241 -0.8753,2.3734 -1.9453,3.4434 -1.1246,1.1246 -1.7059,2.566 -1.3789,3.4179 0.3281,0.8552 -0.2275,2.2127 -1.3222,3.2325 -1.0376,0.9667 -2.1667,2.9044 -2.5098,4.3066 -0.3431,1.4022 -0.9068,2.76 -1.2539,3.0176 -0.347,0.2575 -3.1913,5.9465 -6.3184,12.6426 -3.1271,6.6957 -12.4707,26.6638 -20.7636,44.373 -8.293,17.7091 -15.5651,33.8296 -16.1622,35.8223 -0.5966,1.9928 -1.3737,3.623 -1.7246,3.623 -1.0161,0 -2.8105,4.5488 -2.8105,7.1231 0,1.2939 -0.3788,2.1189 -0.8399,1.8339 -1.0153,-0.6277 -1.9707,1.6274 -1.9707,4.6524 0,1.22 -0.6899,2.6043 -1.5332,3.0762 -0.8433,0.472 -1.6377,2.1872 -1.7656,3.8125 -0.1315,1.6724 -1.2595,3.9841 -2.5996,5.3242 -1.3022,1.3022 -3.4957,5.1916 -4.875,8.6426 -1.3792,3.451 -2.8497,6.6958 -3.2656,7.2109 -0.9955,1.2331 -16.2045,33.473 -22.5313,47.7617 -2.7369,6.181 -5.5316,11.794 -6.2109,12.4746 -0.6792,0.6807 -1.2344,2.2311 -1.2344,3.4453 0,1.2141 -0.6317,2.8407 -1.4043,3.6133 -0.7726,0.7727 -1.4062,2.488 -1.4062,3.8125 0,1.3245 -0.4448,2.4082 -0.9903,2.4082 -0.5456,0 -0.7536,0.3877 -0.4609,0.8613 0.2926,0.4735 -0.1035,1.4961 -0.8809,2.2735 -0.7773,0.7773 -1.4121,1.8827 -1.4121,2.4551 0,1.6427 -3.6988,8.457 -4.5898,8.457 -0.4422,0 -1.3178,1.3709 -1.9473,3.0449 -0.6296,1.674 -1.5232,3.9914 -1.9863,5.1504 -0.4631,1.1589 -1.215,3.0562 -1.6699,4.2148 -4.2543,10.8378 -6.3199,15.2852 -8.4903,18.2813 -1.3974,1.929 -2.8268,4.6505 -3.1777,6.0488 -0.3509,1.3982 -1.5209,3.3642 -2.5996,4.3692 -1.0958,1.0208 -1.662,2.3108 -1.2832,2.9238 0.373,0.6035 -0.2139,2.3057 -1.3047,3.7812 -1.0909,1.4754 -1.9844,3.2741 -1.9844,3.9981 0,0.7241 -0.8428,2.3877 -1.873,3.6973 -1.0302,1.3096 -1.877,3.1585 -1.877,4.1074 0,0.9489 -0.7615,2.9899 -1.6894,4.5351 -0.928,1.5453 -2.8864,5.6541 -4.3516,9.1309 -1.4653,3.4768 -3.0231,6.3203 -3.4609,6.3203 -0.4379,0 -0.7949,0.6468 -0.7949,1.4356 0,0.7887 -0.6317,1.6761 -1.4043,1.9726 -0.7727,0.2965 -1.4063,1.3059 -1.4063,2.2442 0,0.9382 -0.5573,2.2663 -1.2402,2.9492 -0.683,0.683 -1.5143,2.597 -1.8457,4.2539 -0.3314,1.6568 -1.7459,4.8155 -3.1446,7.0195 -1.3988,2.2039 -16.2886,31.8209 -33.0879,65.8164 -16.7988,33.9954 -33.8477,68.1312 -37.8847,75.8574 -4.0369,7.7263 -12.2968,23.5298 -18.3574,35.1192 -25.3163,48.4108 -36.4883,70.4911 -36.4883,72.1211 0,0.9515 -0.6102,2.3407 -1.3574,3.0879 -0.7472,0.7472 -1.648,2.5701 -2.002,4.0488 -0.354,1.4786 -1.0563,3.2113 -1.5605,3.8516 -1.4495,1.8408 -6.3164,12.4568 -6.3164,13.7773 0,0.6569 -0.761,2.1994 -1.6895,3.4277 -0.9285,1.2284 -2.7199,4.9215 -3.9805,8.2051 -1.2606,3.2836 -3.214,6.5809 -4.3418,7.3281 -1.1279,0.7471 -1.8497,1.8837 -1.6035,2.5254 0.5701,1.4856 -4.9665,13.9158 -6.6074,14.834 -0.6782,0.3796 -3.1262,5.0142 -5.4395,10.3008 -13.4246,30.6795 -24.0162,66.9048 -27.9511,95.5957 -1.0593,7.7237 -1.0181,8.3653 0.6562,9.998 3.1314,3.0536 27.5621,17.2954 66.0528,38.5059 20.549,11.3239 48.0003,26.6715 61.0019,34.1055 13.0016,7.4338 23.9555,13.5251 24.3418,13.5371 0.3863,0.012 0.7031,-1.0552 0.7031,-2.3731 0,-3.447 5.125,-23.2851 9.543,-36.9375 12.5451,-38.7655 35.2698,-86.4639 60.457,-126.8984 14.1188,-22.6653 47.3324,-67.6232 67.1114,-90.8418 26.1893,-30.7445 78.3271,-81.32 118.4882,-114.9414 25.7588,-21.564 82.0404,-62.801 122.2832,-89.5957 43.5103,-28.97 93.1427,-58.5067 155.4434,-92.5059 34.0869,-18.602 126.3779,-65.0708 161.0977,-81.1133 13.9069,-6.4255 34.1363,-15.7881 44.9531,-20.8046 115.0552,-53.3592 267.4677,-115.7102 402.2324,-164.5528 15.7558,-5.7103 187.4949,-62.4913 188.0766,-62.4913 0.1761,0 1.5718,-29.7689 1.5718,-72.7782 0,-43.0094 1.9241,-89.4551 1.7286,-89.4551 -1.577,0 -239.8405,86.2712 -276.1309,99.9395 -62.4294,23.5131 -152.9993,58.4904 -191.9277,74.1191 -14.0137,5.6262 -25.2879,9.6339 -26.6504,9.4727 -1.9053,-0.2254 -3.111,-1.7292 -6.2383,-7.7735 -2.1319,-4.1206 -11.1438,-21.3594 -20.0254,-38.3086 -8.8816,-16.9488 -42.9274,-83.9554 -75.6582,-148.9043 -94.453,-187.4267 -101.1378,-200.3502 -112.2695,-217.0957 -13.1424,-19.7697 -35.692,-39.3809 -57.7891,-50.2558 -16.4362,-8.0889 -39.3204,-12.3427 -60.5918,-11.8028 z m 4.6953,184.545 c 10.8531,0 20.4382,6.0496 27.9531,17.6582 2.3583,3.6429 9.4829,17.5805 15.8321,30.9726 6.3491,13.3922 42.3001,85.8785 79.8926,161.0801 37.592,75.2016 68.5952,138.2439 68.8945,140.0918 l 0.5449,3.3594 -12.9746,5.4531 c -22.4224,9.424 -67.5821,29.029 -83.9004,36.4238 -65.5996,29.7274 -207.556,102.8028 -263.4101,135.5977 -5.6659,3.3267 -25.6838,15.1195 -44.4844,26.2051 -18.8005,11.0853 -40.293,23.6615 -47.7617,27.9453 -7.4687,4.2837 -16.9485,10.0379 -21.0645,12.789 -5.2229,3.491 -8.4056,5.0039 -10.5351,5.0039 -3.7555,0 -3.8411,-0.9933 -0.7227,-8.4023 3.5906,-8.5308 28.662,-61.868 44.0332,-93.6777 16.6009,-34.3547 29.0939,-61.1086 46.3594,-99.2715 7.1073,-15.71 19.3253,-42.4711 27.1504,-59.4688 7.8251,-16.9977 23.0024,-50.5018 33.7265,-74.4531 10.7242,-23.9513 23.4912,-52.1869 28.3711,-62.7461 4.88,-10.5592 15.9227,-34.7916 24.541,-53.8496 8.6183,-19.0581 19.2473,-42.4476 23.6192,-51.9766 4.3719,-9.529 12.1535,-26.8074 17.2929,-38.3964 14.1322,-31.8674 20.6852,-44.1062 27.0997,-50.6211 7.3599,-7.4754 11.8611,-9.7168 19.5429,-9.7168 z"
   sodipodi:nodetypes="sssssssssssssssssssssssssssssssssssssssssssscssssssscsssssssssssssssssssssssssssssssssssssssssssssssssscsssccsssssssssssssssssc" /><path
   style="fill:#ffffff;fill-opacity:1;stroke-width:54.4166;paint-order:markers stroke fill"
   d="m 2149.3793,3015.3368 c 0.2242,-0.2047 3.3893,-2.8538 7.0336,-5.8869 3.6443,-3.0331 8.3751,-7.1694 10.5129,-9.1918 2.1379,-2.0224 6.9765,-6.3679 10.7526,-9.6568 3.776,-3.2889 10.2447,-8.987 14.3748,-12.6625 24.6774,-21.9616 63.2608,-53.7199 82.1725,-67.6369 11.9463,-8.7911 46.2562,-33.2429 56.4265,-40.2137 29.7342,-20.3798 79.8648,-52.1083 106.1075,-67.1571 27.2288,-15.6143 103.8237,-55.0004 149.2066,-76.7238 17.2455,-8.255 58.0201,-26.7443 58.9792,-26.7443 0.1301,0 0.2364,9.1433 0.2364,20.3185 V 2740.1 l -6.1146,3.541 c -11.0571,6.4032 -27.5544,15.3141 -43.9975,23.7649 -8.9011,4.5746 -17.9215,9.2827 -20.0456,10.4624 -2.124,1.1797 -13.9993,7.6053 -26.3896,14.2791 -12.3902,6.6737 -26.4861,14.4011 -31.3242,17.172 -4.8381,2.7708 -20.2857,11.3087 -34.328,18.973 -24.0182,13.1092 -95.9411,52.5959 -118.6459,65.1382 -5.6641,3.129 -10.9372,5.9577 -11.718,6.2861 -0.7808,0.3284 -5.2219,2.8425 -9.8693,5.5869 -4.6473,2.7443 -22.8352,13.2277 -40.4175,23.2963 -38.9063,22.28 -63.3547,36.4862 -66.5104,38.6474 -2.4637,1.6872 -85.9864,48.4618 -86.5356,48.4618 -0.1727,0 -0.1306,-0.1675 0.094,-0.3723 z"
   id="path32792" /><path
   style="fill:#ffffff;fill-opacity:1;stroke-width:60.5183;paint-order:markers stroke fill"
   d="m 2643.7072,2720.1231 -0.8222,-20.2521 15.7442,-6.2158 c 27.808,-10.9785 50.1334,-19.881 74.4765,-28.2361 7.9313,-2.7223 18.3206,-6.355 23.0874,-8.0728 4.7668,-1.7178 8.8797,-3.0524 9.1396,-2.9657 0.557,0.1856 -4.019,5.2184 -9.694,10.6618 -4.4281,4.2474 -23.6248,20.5715 -30.034,25.5397 -2.231,1.7294 -7.5996,5.6105 -11.9304,8.6247 -20.1756,14.0423 -25.9921,17.5835 -52.732,32.1043 -7.6116,4.1333 -14.0432,7.7078 -14.2926,7.9433 -0.2493,0.2354 -2.9298,1.3518 -3.1342,1.3518 -0.2045,0 -0.5972,-9.3722 0.1917,-20.4831 z"
   id="path32794"
   sodipodi:nodetypes="scsssssssssss" /><path
   style="fill:#ffffff;fill-opacity:1;stroke-width:403.917;paint-order:markers stroke fill"
   d="m 1717.0041,2934.7664 c -48.9098,-26.8992 -90.1897,-50.1705 -91.7332,-51.714 -4.6738,-4.6738 78.5281,-73.9829 150.4018,-125.2882 173.5066,-123.8535 423.2243,-237.8565 741.0076,-338.2902 113.8589,-35.9845 281.9856,-81.5109 301.3778,-81.609 5.2273,-0.026 5.5827,4.1627 4.7776,56.3206 l -0.8697,56.3491 -51.7346,15.0426 c -200.6143,58.3313 -432.7765,151.2873 -598.0183,239.4421 -127.2009,67.8603 -237.4452,148.1916 -324.8764,236.7262 l -41.4059,41.9284 z"
   id="path37881" /><path
   style="fill:#ffffff;fill-opacity:1;stroke-width:403.917;paint-order:markers stroke fill"
   d="m 1968.8505,3059.1094 c -28.4831,-5.3359 -58.3781,-16.4331 -87.2478,-32.387 -23.4683,-12.969 -23.6611,-11.8543 7.624,-44.0876 62.8448,-64.7495 160.9129,-139.4757 261.3792,-199.1663 77.9096,-46.2889 230.0593,-118.9086 346.0759,-165.1789 88.678,-35.367 216.4295,-78.768 294.5721,-100.0749 l 29.8041,-8.1267 -2.1537,15 c -4.0381,28.1231 -11.6765,53.1917 -24.0715,79.0006 -17.7826,37.0267 -24.0182,42.4496 -65.2336,56.7321 -102.0434,35.3611 -254.9377,109.8979 -351.2184,171.2207 -63.3181,40.3284 -119.4478,81.4059 -167.4435,122.5405 -78.5979,67.3619 -91.5097,77.1004 -115.425,87.0563 -47.5006,19.7746 -86.0106,25.0865 -126.6618,17.4712 z"
   id="path38654" /><path
   style="fill:#ffffff;fill-opacity:1;stroke-width:403.917;paint-order:markers stroke fill"
   d="m 2407.8186,1751.4901 c -11.2538,-37.1685 -26.991,-53.0335 -65.6376,-66.1698 l -16.4468,-5.5904 18.7914,-6.9185 c 36.763,-13.535 49.6635,-26.0943 63.0326,-61.3652 6.2893,-16.5928 8.228,-19.2912 10.1571,-14.137 16.5659,44.2626 30.9959,61.3705 62.0366,73.5489 12.1634,4.7721 22.1152,8.992 22.1152,9.3776 0,0.3855 -8.594,3.9149 -19.0977,7.8431 -28.6763,10.7242 -45.4326,27.1586 -56.059,54.9821 -4.8432,12.6811 -9.7393,24.1774 -10.8803,25.5473 -1.141,1.3699 -4.7461,-6.3332 -8.0115,-17.1181 z"
   id="path39508" /><path
   style="fill:#ffffff;fill-opacity:1;stroke-width:403.917;paint-order:markers stroke fill"
   d="m 2029.4143,2501.9718 c -7.6547,-18.6143 -22.5461,-32.8095 -39.6507,-37.797 l -13.7915,-4.0214 19.286,-8.9037 c 19.3685,-8.9418 28.4854,-18.2441 36.4537,-37.1952 l 4.2937,-10.2115 10.6999,20.0751 c 9.6043,18.0196 12.588,20.9322 29.1408,28.446 l 18.4409,8.371 -11.4126,4.1268 c -16.1263,5.8314 -33.3239,21.9481 -40.3368,37.8015 -3.2933,7.4451 -6.2791,13.5312 -6.6351,13.5246 -0.356,-0.01 -3.2757,-6.4038 -6.4883,-14.2162 z"
   id="path39510" /><path
   style="fill:#ffffff;fill-opacity:1;stroke-width:403.917;paint-order:markers stroke fill"
   d="m 1514.5987,2016.145 c -10.8662,-39.8286 -26.9639,-58.8359 -60.9717,-71.9919 -7.6881,-2.9742 -15.1348,-6.4201 -16.5482,-7.6576 -1.4134,-1.2376 6.4696,-5.6238 17.5178,-9.7473 27.9121,-10.4175 46.3445,-29.476 56.4299,-58.3467 l 7.662,-21.9335 8.256,20.6531 c 13.2624,33.1772 22.8825,45.1599 45.2146,56.3194 10.8886,5.4411 21.7184,9.8929 24.0663,9.8929 9.9317,0 2.9605,6.0827 -14.4206,12.5828 -28.3098,10.5872 -44.3427,29.5977 -57.7479,68.473 l -5.5478,16.0886 z"
   id="path39512" /><path
   style="fill:#ffffff;fill-opacity:1;stroke-width:403.917;paint-order:markers stroke fill"
   d=""
   id="path39514" /><path
   style="fill:#ffffff;fill-opacity:1;stroke-width:403.917;paint-order:markers stroke fill"
   d="m 1632.971,1706.1335 c -4.9503,-13.6899 -23.2287,-30.3739 -36.0957,-32.9473 -9.3899,-1.878 -9.3162,-1.9761 9.0198,-12.0034 14.4228,-7.8873 19.9797,-13.1785 25.2762,-24.0679 l 6.7891,-13.9581 6.6078,12.9523 c 7.5443,14.7881 22.7422,28.7406 34.5283,31.6987 7.6422,1.9181 7.2807,2.43 -7.3106,10.3505 -13.6231,7.395 -20.035,14.2589 -31.5213,33.7431 -2.775,4.7073 -3.7984,3.898 -7.2936,-5.7679 z"
   id="path39516" /><path
   style="fill:#ffffff;fill-opacity:1;stroke-width:403.917;paint-order:markers stroke fill"
   d=""
   id="path39518" /><path
   style="fill:#ffffff;fill-opacity:1;stroke-width:403.917;paint-order:markers stroke fill"
   d="m 1455.0669,1691.301 -6.76,-8.1626 6.8771,-7.9951 6.8771,-7.9951 6.76,8.1626 6.76,8.1626 -6.877,7.9951 -6.8771,7.9951 z"
   id="path39520" /></g><path
   style="fill:#ffffff;fill-opacity:1;stroke-width:1007.03;paint-order:markers stroke fill"
   d="m 577.86804,3215.3153 c -64.01341,-51.8265 -115.36581,-136.0544 -142.72055,-234.0897 -13.5054,-48.4016 -14.36222,-104.015 -14.36222,-932.2178 0,-828.7086 0.85034,-883.8199 14.39244,-932.7891 25.97075,-93.9114 58.92217,-150.95042 127.20223,-220.18642 58.0824,-58.8957 79.9771,-73.6614 271.8718,-183.3486 114.7863,-65.6118 315.45896,-188.6078 469.22916,-276.70691 524.4235,-300.45655 584.1176,-323.10433 695.3796,-333.61724 30.717,-2.902343 71.7615,-0.89339 99.4815,4.86952 90.1351,18.73879 103.5953,25.73446 748.1136,388.81913 603.625,340.0474 603.3598,339.8835 668.5309,413.1001 74.4545,83.6455 126.8173,219.05552 121.3738,313.87122 l -2.3493,40.9198 -129.9466,53.9885 c -71.4708,29.6936 -132.1496,54.1054 -134.8418,54.2481 -2.6923,0.1426 -6.5103,-38.4732 -8.4843,-85.8133 -4.1171,-98.7307 -18.1179,-139.9293 -65.781,-193.5657 -34.4226,-38.7364 -46.1751,-45.9201 -397.3106,-242.84752 -145.107,-81.3804 -366.607,-205.6228 -492.2219,-276.0942 -292.1021,-163.8721 -304.8013,-170.23769 -350.6385,-175.75683 -78.9581,-9.50722 -35.0244,-31.69732 -795.2546,401.66963 -214.4119,122.225 -412.50976,238.92362 -440.21736,259.33032 -35.4694,26.1234 -57.6101,50.1353 -74.8178,81.1405 l -24.4402,44.0374 -3.9378,896.7588 -3.9379,896.7588 -33.2303,72.2645 c -18.2765,39.7453 -39.7334,100.2828 -47.6816,134.5277 l -14.4512,62.2635 z"
   id="path16325"
   sodipodi:nodetypes="sssssssssssscsssssssssscccsscs" /></svg>
